  0
SECTION
  2
HEADER
  9
$ACADVER
  1
AC1006
  9
$EXTMIN
 10
0.000000
 20
0.000000
 30
0.000000
  9
$EXTMAX
 10
3508.000000
 20
4961.000000
 30
0.000000
  0
ENDSEC
  0
SECTION
  2
ENTITIES
  0
POLYLINE
  8
0
 66
1
 70
1
  0
VERTEX
  8
0
 10
0.000000
 20
4369.000000
 42
0.000000
  0
VERTEX
  8
0
 10
0.000000
 20
3777.000000
 42
0.000000
  0
VERTEX
  8
0
 10
887.500000
 20
3777.000000
 42
0.000000
  0
VERTEX
  8
0
 10
1775.000000
 20
3777.000000
 42
0.000000
  0
VERTEX
  8
0
 10
1775.000000
 20
4369.000000
 42
0.000000
  0
VERTEX
  8
0
 10
1775.000000
 20
4961.000000
 42
0.000000
  0
VERTEX
  8
0
 10
887.500000
 20
4961.000000
 42
0.000000
  0
VERTEX
  8
0
 10
0.000000
 20
4961.000000
 42
0.000000
  0
SEQEND
  0
POLYLINE
  8
0
 66
1
 70
1
  0
VERTEX
  8
0
 10
1772.000000
 20
4369.000000
 42
0.000000
  0
VERTEX
  8
0
 10
1772.000000
 20
3780.000000
 42
0.000000
  0
VERTEX
  8
0
 10
887.500000
 20
3780.000000
 42
0.000000
  0
VERTEX
  8
0
 10
3.000000
 20
3780.000000
 42
0.000000
  0
VERTEX
  8
0
 10
3.000000
 20
4369.000000
 42
0.000000
  0
VERTEX
  8
0
 10
3.000000
 20
4958.000000
 42
0.000000
  0
VERTEX
  8
0
 10
887.500000
 20
4958.000000
 42
0.000000
  0
VERTEX
  8
0
 10
1772.000000
 20
4958.000000
 42
0.000000
  0
SEQEND
  0
POLYLINE
  8
0
 66
1
 70
1
  0
VERTEX
  8
0
 10
2008.000000
 20
3938.000000
 42
0.000000
  0
VERTEX
  8
0
 10
2008.000000
 20
3051.000000
 42
0.000000
  0
VERTEX
  8
0
 10
2600.000000
 20
3051.000000
 42
0.000000
  0
VERTEX
  8
0
 10
3192.000000
 20
3051.000000
 42
0.000000
  0
VERTEX
  8
0
 10
3192.000000
 20
3938.000000
 42
0.000000
  0
VERTEX
  8
0
 10
3192.000000
 20
4825.000000
 42
0.000000
  0
VERTEX
  8
0
 10
2600.000000
 20
4825.000000
 42
0.000000
  0
VERTEX
  8
0
 10
2008.000000
 20
4825.000000
 42
0.000000
  0
SEQEND
  0
POLYLINE
  8
0
 66
1
 70
1
  0
VERTEX
  8
0
 10
3188.750563
 20
3937.750000
 42
0.000000
  0
VERTEX
  8
0
 10
3188.500000
 20
3053.500000
 42
0.000000
  0
VERTEX
  8
0
 10
2599.500000
 20
3053.500000
 42
0.000000
  0
VERTEX
  8
0
 10
2010.500000
 20
3053.500000
 42
0.000000
  0
VERTEX
  8
0
 10
2010.249437
 20
3937.750000
 42
0.000000
  0
VERTEX
  8
0
 10
2009.998874
 20
4822.000000
 42
0.000000
  0
VERTEX
  8
0
 10
2599.500000
 20
4822.000000
 42
0.000000
  0
VERTEX
  8
0
 10
3189.001126
 20
4822.000000
 42
0.000000
  0
SEQEND
  0
POLYLINE
  8
0
 66
1
 70
1
  0
VERTEX
  8
0
 10
0.000000
 20
3070.000561
 42
0.000000
  0
VERTEX
  8
0
 10
0.000000
 20
2478.000000
 42
0.000000
  0
VERTEX
  8
0
 10
887.500840
 20
2478.000000
 42
0.000000
  0
VERTEX
  8
0
 10
1775.001679
 20
2478.000000
 42
0.000000
  0
VERTEX
  8
0
 10
1774.750840
 20
3069.750000
 42
0.000000
  0
VERTEX
  8
0
 10
1774.500000
 20
3661.500000
 42
0.000000
  0
VERTEX
  8
0
 10
887.250000
 20
3661.750561
 42
0.000000
  0
VERTEX
  8
0
 10
0.000000
 20
3662.001122
 42
0.000000
  0
SEQEND
  0
POLYLINE
  8
0
 66
1
 70
1
  0
VERTEX
  8
0
 10
1771.750843
 20
3069.750000
 42
0.000000
  0
VERTEX
  8
0
 10
1771.500000
 20
2480.500000
 42
0.000000
  0
VERTEX
  8
0
 10
887.250000
 20
2480.249437
 42
0.000000
  0
VERTEX
  8
0
 10
3.000000
 20
2479.998874
 42
0.000000
  0
VERTEX
  8
0
 10
3.000000
 20
3069.499437
 42
0.000000
  0
VERTEX
  8
0
 10
3.000000
 20
3659.000000
 42
0.000000
  0
VERTEX
  8
0
 10
887.500843
 20
3659.000000
 42
0.000000
  0
VERTEX
  8
0
 10
1772.001686
 20
3659.000000
 42
0.000000
  0
SEQEND
  0
POLYLINE
  8
0
 66
1
 70
1
  0
VERTEX
  8
0
 10
0.000000
 20
1770.000000
 42
0.000000
  0
VERTEX
  8
0
 10
0.000000
 20
1178.000000
 42
0.000000
  0
VERTEX
  8
0
 10
887.500000
 20
1178.000000
 42
0.000000
  0
VERTEX
  8
0
 10
1775.000000
 20
1178.000000
 42
0.000000
  0
VERTEX
  8
0
 10
1775.000000
 20
1770.000000
 42
0.000000
  0
VERTEX
  8
0
 10
1775.000000
 20
2362.000000
 42
0.000000
  0
VERTEX
  8
0
 10
887.500000
 20
2362.000000
 42
0.000000
  0
VERTEX
  8
0
 10
0.000000
 20
2362.000000
 42
0.000000
  0
SEQEND
  0
POLYLINE
  8
0
 66
1
 70
1
  0
VERTEX
  8
0
 10
1772.000000
 20
1770.000000
 42
0.000000
  0
VERTEX
  8
0
 10
1772.000000
 20
1181.000000
 42
0.000000
  0
VERTEX
  8
0
 10
887.500000
 20
1181.000000
 42
0.000000
  0
VERTEX
  8
0
 10
3.000000
 20
1181.000000
 42
0.000000
  0
VERTEX
  8
0
 10
3.000000
 20
1770.000000
 42
0.000000
  0
VERTEX
  8
0
 10
3.000000
 20
2359.000000
 42
0.000000
  0
VERTEX
  8
0
 10
887.500000
 20
2359.000000
 42
0.000000
  0
VERTEX
  8
0
 10
1772.000000
 20
2359.000000
 42
0.000000
  0
SEQEND
  0
POLYLINE
  8
0
 66
1
 70
1
  0
VERTEX
  8
0
 10
56.000000
 20
4923.257693
 42
0.078939
  0
VERTEX
  8
0
 10
50.948941
 20
4920.523884
 42
0.035367
  0
VERTEX
  8
0
 10
45.277724
 20
4915.506084
 42
0.035377
  0
VERTEX
  8
0
 10
40.358057
 20
4909.724443
 42
0.076982
  0
VERTEX
  8
0
 10
37.671385
 20
4904.571861
 42
0.087003
  0
VERTEX
  8
0
 10
35.859106
 20
4892.851288
 42
0.088710
  0
VERTEX
  8
0
 10
38.166381
 20
4881.298129
 42
0.089607
  0
VERTEX
  8
0
 10
44.302429
 20
4871.352797
 42
0.091077
  0
VERTEX
  8
0
 10
53.500000
 20
4864.249878
 42
0.060547
  0
VERTEX
  8
0
 10
59.401250
 20
4862.062278
 42
0.047061
  0
VERTEX
  8
0
 10
66.186233
 20
4861.106149
 42
0.046521
  0
VERTEX
  8
0
 10
73.120828
 20
4861.432530
 42
0.055234
  0
VERTEX
  8
0
 10
79.469008
 20
4863.055933
 42
0.057241
  0
VERTEX
  8
0
 10
85.275513
 20
4866.042612
 42
0.049031
  0
VERTEX
  8
0
 10
90.592302
 20
4870.407698
 42
0.049031
  0
VERTEX
  8
0
 10
94.957388
 20
4875.724487
 42
0.057241
  0
VERTEX
  8
0
 10
97.944067
 20
4881.530992
 42
0.073602
  0
VERTEX
  8
0
 10
99.924176
 20
4890.651821
 42
0.070845
  0
VERTEX
  8
0
 10
99.219377
 20
4900.080434
 42
0.071285
  0
VERTEX
  8
0
 10
95.921016
 20
4908.886094
 42
0.076138
  0
VERTEX
  8
0
 10
90.336398
 20
4916.191163
 42
0.046070
  0
VERTEX
  8
0
 10
85.467761
 20
4920.080411
 42
0.052486
  0
VERTEX
  8
0
 10
80.169650
 20
4922.819028
 42
0.051920
  0
VERTEX
  8
0
 10
74.367149
 20
4924.415280
 42
0.043511
  0
VERTEX
  8
0
 10
68.000000
 20
4924.911284
 42
0.017637
  0
VERTEX
  8
0
 10
64.798724
 20
4924.768749
 42
0.014294
  0
VERTEX
  8
0
 10
61.381250
 20
4924.397005
 42
0.014534
  0
VERTEX
  8
0
 10
58.247328
 20
4923.871932
 42
0.035882
  0
SEQEND
  0
POLYLINE
  8
0
 66
1
 70
1
  0
VERTEX
  8
0
 10
77.980055
 20
4922.317447
 42
-0.062085
  0
VERTEX
  8
0
 10
82.952946
 20
4919.998136
 42
-0.040898
  0
VERTEX
  8
0
 10
88.013698
 20
4916.213151
 42
-0.040237
  0
VERTEX
  8
0
 10
92.498443
 20
4911.555186
 42
-0.052270
  0
VERTEX
  8
0
 10
95.751124
 20
4906.607598
 42
-0.068762
  0
VERTEX
  8
0
 10
97.793070
 20
4900.831927
 42
-0.044800
  0
VERTEX
  8
0
 10
98.591707
 20
4893.793167
 42
-0.044818
  0
VERTEX
  8
0
 10
98.123829
 20
4886.729041
 42
-0.069085
  0
VERTEX
  8
0
 10
96.354315
 20
4880.877595
 42
-0.044152
  0
VERTEX
  8
0
 10
93.633001
 20
4876.123197
 42
-0.041065
  0
VERTEX
  8
0
 10
90.059315
 20
4871.794923
 42
-0.041106
  0
VERTEX
  8
0
 10
85.830231
 20
4868.112921
 42
-0.044455
  0
VERTEX
  8
0
 10
81.160544
 20
4865.279782
 42
-0.021710
  0
VERTEX
  8
0
 10
77.838742
 20
4863.823869
 42
-0.042593
  0
VERTEX
  8
0
 10
75.070244
 20
4863.014195
 42
-0.037332
  0
VERTEX
  8
0
 10
71.975999
 20
4862.626139
 42
-0.013138
  0
VERTEX
  8
0
 10
67.500000
 20
4862.519333
 42
-0.042428
  0
VERTEX
  8
0
 10
60.698845
 20
4863.114050
 42
-0.063953
  0
VERTEX
  8
0
 10
55.022056
 20
4864.868586
 42
-0.063016
  0
VERTEX
  8
0
 10
49.913969
 20
4868.024019
 42
-0.039837
  0
VERTEX
  8
0
 10
44.824955
 20
4872.849796
 42
-0.105291
  0
VERTEX
  8
0
 10
38.473691
 20
4883.878443
 42
-0.106761
  0
VERTEX
  8
0
 10
37.209515
 20
4896.480980
 42
-0.105635
  0
VERTEX
  8
0
 10
41.264814
 20
4908.587177
 42
-0.101087
  0
VERTEX
  8
0
 10
49.959663
 20
4918.201724
 42
-0.062795
  0
VERTEX
  8
0
 10
56.202986
 20
4921.683098
 42
-0.059421
  0
VERTEX
  8
0
 10
63.232500
 20
4923.587337
 42
-0.058324
  0
VERTEX
  8
0
 10
70.636198
 20
4923.804513
 42
-0.056359
  0
SEQEND
  0
POLYLINE
  8
0
 66
1
 70
1
  0
VERTEX
  8
0
 10
1692.662223
 20
4923.509652
 42
0.057920
  0
VERTEX
  8
0
 10
1686.553033
 20
4920.324971
 42
0.050035
  0
VERTEX
  8
0
 10
1680.999912
 20
4915.683280
 42
0.050049
  0
VERTEX
  8
0
 10
1676.480930
 20
4910.032484
 42
0.058032
  0
VERTEX
  8
0
 10
1673.433509
 20
4903.860175
 42
0.053285
  0
VERTEX
  8
0
 10
1672.269194
 20
4899.023075
 42
0.032737
  0
VERTEX
  8
0
 10
1671.892294
 20
4893.168817
 42
0.032485
  0
VERTEX
  8
0
 10
1672.285455
 20
4887.230106
 42
0.047443
  0
VERTEX
  8
0
 10
1673.458708
 20
4882.124318
 42
0.063144
  0
VERTEX
  8
0
 10
1675.825284
 20
4877.184871
 42
0.039019
  0
VERTEX
  8
0
 10
1679.732201
 20
4872.055397
 42
0.038541
  0
VERTEX
  8
0
 10
1684.479129
 20
4867.499817
 42
0.053958
  0
VERTEX
  8
0
 10
1689.392402
 20
4864.280962
 42
0.059302
  0
VERTEX
  8
0
 10
1695.293829
 20
4862.102000
 42
0.045792
  0
VERTEX
  8
0
 10
1702.087001
 20
4861.118949
 42
0.045645
  0
VERTEX
  8
0
 10
1708.971833
 20
4861.387820
 42
0.057717
  0
VERTEX
  8
0
 10
1715.147094
 20
4862.935489
 42
0.048505
  0
VERTEX
  8
0
 10
1720.516192
 20
4865.580940
 42
0.045005
  0
VERTEX
  8
0
 10
1725.422121
 20
4869.269495
 42
0.045181
  0
VERTEX
  8
0
 10
1729.571006
 20
4873.760166
 42
0.049813
  0
VERTEX
  8
0
 10
1732.693850
 20
4878.785561
 42
0.021664
  0
VERTEX
  8
0
 10
1734.185966
 20
4882.189244
 42
0.043924
  0
VERTEX
  8
0
 10
1734.999112
 20
4884.995488
 42
0.037200
  0
VERTEX
  8
0
 10
1735.383418
 20
4888.185810
 42
0.011667
  0
VERTEX
  8
0
 10
1735.490232
 20
4893.000000
 42
0.031423
  0
VERTEX
  8
0
 10
1735.057432
 20
4899.756035
 42
0.056379
  0
VERTEX
  8
0
 10
1733.740930
 20
4905.148867
 42
0.058659
  0
VERTEX
  8
0
 10
1731.297622
 20
4909.967675
 42
0.037084
  0
VERTEX
  8
0
 10
1727.426127
 20
4914.950088
 42
0.046670
  0
VERTEX
  8
0
 10
1722.775492
 20
4919.220580
 42
0.060261
  0
VERTEX
  8
0
 10
1717.775358
 20
4922.144630
 42
0.056961
  0
VERTEX
  8
0
 10
1711.998039
 20
4923.900078
 42
0.036183
  0
VERTEX
  8
0
 10
1705.000000
 20
4924.664852
 42
0.012161
  0
VERTEX
  8
0
 10
1701.007075
 20
4924.713555
 42
0.020312
  0
VERTEX
  8
0
 10
1697.652104
 20
4924.536445
 42
0.024239
  0
VERTEX
  8
0
 10
1694.873636
 20
4924.139718
 42
0.043660
  0
SEQEND
  0
POLYLINE
  8
0
 66
1
 70
1
  0
VERTEX
  8
0
 10
1717.500000
 20
4920.750122
 42
-0.062448
  0
VERTEX
  8
0
 10
1724.780916
 20
4915.761736
 42
-0.074344
  0
VERTEX
  8
0
 10
1730.121081
 20
4909.382538
 42
-0.074459
  0
VERTEX
  8
0
 10
1733.356171
 20
4901.728937
 42
-0.062900
  0
VERTEX
  8
0
 10
1734.458627
 20
4893.000000
 42
-0.064423
  0
VERTEX
  8
0
 10
1733.324651
 20
4884.235483
 42
-0.075282
  0
VERTEX
  8
0
 10
1730.001510
 20
4876.539466
 42
-0.075207
  0
VERTEX
  8
0
 10
1724.545556
 20
4870.166491
 42
-0.064125
  0
VERTEX
  8
0
 10
1717.160544
 20
4865.279782
 42
-0.021710
  0
VERTEX
  8
0
 10
1713.838742
 20
4863.823869
 42
-0.042593
  0
VERTEX
  8
0
 10
1711.070244
 20
4863.014195
 42
-0.037332
  0
VERTEX
  8
0
 10
1707.975999
 20
4862.626139
 42
-0.013138
  0
VERTEX
  8
0
 10
1703.500000
 20
4862.519333
 42
-0.012588
  0
VERTEX
  8
0
 10
1699.076532
 20
4862.641416
 42
-0.037105
  0
VERTEX
  8
0
 10
1696.060229
 20
4863.026387
 42
-0.044786
  0
VERTEX
  8
0
 10
1693.459694
 20
4863.804207
 42
-0.026069
  0
VERTEX
  8
0
 10
1690.500000
 20
4865.169723
 42
-0.056656
  0
VERTEX
  8
0
 10
1683.416123
 20
4869.991003
 42
-0.068264
  0
VERTEX
  8
0
 10
1678.088665
 20
4876.019981
 42
-0.069732
  0
VERTEX
  8
0
 10
1674.661798
 20
4883.147815
 42
-0.062845
  0
VERTEX
  8
0
 10
1673.167905
 20
4891.202561
 42
-0.076153
  0
VERTEX
  8
0
 10
1674.120040
 20
4901.285301
 42
-0.083986
  0
VERTEX
  8
0
 10
1678.058158
 20
4910.254131
 42
-0.083196
  0
VERTEX
  8
0
 10
1684.765614
 20
4917.492721
 42
-0.072969
  0
VERTEX
  8
0
 10
1693.762601
 20
4922.546259
 42
-0.073439
  0
VERTEX
  8
0
 10
1698.894191
 20
4923.690983
 42
-0.037114
  0
VERTEX
  8
0
 10
1705.534693
 20
4923.682159
 42
-0.036934
  0
VERTEX
  8
0
 10
1712.214049
 20
4922.677058
 42
-0.063272
  0
SEQEND
  0
POLYLINE
  8
0
 66
1
 70
1
  0
VERTEX
  8
0
 10
64.627496
 20
4368.583792
 42
0.080924
  0
VERTEX
  8
0
 10
57.844808
 20
4364.738312
 42
0.073916
  0
VERTEX
  8
0
 10
52.387545
 20
4358.832779
 42
0.073188
  0
VERTEX
  8
0
 10
48.842467
 20
4351.536573
 42
0.076693
  0
VERTEX
  8
0
 10
47.625000
 20
4343.645962
 42
0.075737
  0
VERTEX
  8
0
 10
48.774982
 20
4336.097530
 42
0.071467
  0
VERTEX
  8
0
 10
52.127569
 20
4329.068725
 42
0.071403
  0
VERTEX
  8
0
 10
57.326752
 20
4323.262752
 42
0.075365
  0
VERTEX
  8
0
 10
63.860436
 20
4319.279630
 42
0.116058
  0
VERTEX
  8
0
 10
74.254724
 20
4317.538768
 42
0.096458
  0
VERTEX
  8
0
 10
85.121341
 20
4320.399993
 42
0.096900
  0
VERTEX
  8
0
 10
94.080652
 20
4327.112169
 42
0.118446
  0
VERTEX
  8
0
 10
99.075681
 20
4336.281059
 42
0.052097
  0
VERTEX
  8
0
 10
99.789692
 20
4340.735673
 42
0.032963
  0
VERTEX
  8
0
 10
99.731410
 20
4346.001322
 42
0.033174
  0
VERTEX
  8
0
 10
98.991350
 20
4351.130596
 42
0.059620
  0
VERTEX
  8
0
 10
97.620494
 20
4355.149661
 42
0.051111
  0
VERTEX
  8
0
 10
95.455356
 20
4358.681519
 42
0.033192
  0
VERTEX
  8
0
 10
92.300850
 20
4362.289512
 42
0.033169
  0
VERTEX
  8
0
 10
88.692266
 20
4365.452464
 42
0.050601
  0
VERTEX
  8
0
 10
85.149661
 20
4367.635448
 42
0.069475
  0
VERTEX
  8
0
 10
80.850311
 20
4369.024077
 42
0.031887
  0
VERTEX
  8
0
 10
74.983753
 20
4369.671599
 42
0.031894
  0
VERTEX
  8
0
 10
69.072721
 20
4369.567625
 42
0.068335
  0
SEQEND
  0
POLYLINE
  8
0
 66
1
 70
1
  0
VERTEX
  8
0
 10
82.344697
 20
4367.398217
 42
-0.068024
  0
VERTEX
  8
0
 10
87.033584
 20
4365.050328
 42
-0.049078
  0
VERTEX
  8
0
 10
91.519829
 20
4361.285776
 42
-0.048812
  0
VERTEX
  8
0
 10
95.213686
 20
4356.689994
 42
-0.064789
  0
VERTEX
  8
0
 10
97.544716
 20
4351.865372
 42
-0.117118
  0
VERTEX
  8
0
 10
98.576104
 20
4340.109196
 42
-0.121029
  0
VERTEX
  8
0
 10
94.177837
 20
4329.303461
 42
-0.120638
  0
VERTEX
  8
0
 10
85.258523
 20
4321.741260
 42
-0.115874
  0
VERTEX
  8
0
 10
73.717881
 20
4319.009769
 42
-0.036669
  0
VERTEX
  8
0
 10
68.825918
 20
4319.360711
 42
-0.058158
  0
VERTEX
  8
0
 10
64.772299
 20
4320.443864
 42
-0.056564
  0
VERTEX
  8
0
 10
60.999247
 20
4322.457810
 42
-0.032619
  0
VERTEX
  8
0
 10
56.954136
 20
4325.652830
 42
-0.044414
  0
VERTEX
  8
0
 10
53.350175
 20
4329.534696
 42
-0.060654
  0
VERTEX
  8
0
 10
50.905478
 20
4333.628272
 42
-0.060501
  0
VERTEX
  8
0
 10
49.510432
 20
4338.197125
 42
-0.043902
  0
VERTEX
  8
0
 10
49.043924
 20
4343.500000
 42
-0.113044
  0
VERTEX
  8
0
 10
51.761995
 20
4355.368540
 42
-0.125162
  0
VERTEX
  8
0
 10
59.324997
 20
4364.360517
 42
-0.125329
  0
VERTEX
  8
0
 10
70.256019
 20
4368.639467
 42
-0.113522
  0
SEQEND
  0
POLYLINE
  8
0
 66
1
 70
1
  0
VERTEX
  8
0
 10
1688.627496
 20
4368.531830
 42
0.136059
  0
VERTEX
  8
0
 10
1678.013301
 20
4361.067869
 42
0.124481
  0
VERTEX
  8
0
 10
1672.312740
 20
4348.952078
 42
0.124012
  0
VERTEX
  8
0
 10
1673.046456
 20
4335.546048
 42
0.134463
  0
VERTEX
  8
0
 10
1680.074069
 20
4324.552048
 42
0.038438
  0
VERTEX
  8
0
 10
1684.056657
 20
4321.474685
 42
0.052201
  0
VERTEX
  8
0
 10
1688.090545
 20
4319.391346
 42
0.052132
  0
VERTEX
  8
0
 10
1692.472737
 20
4318.186785
 42
0.038195
  0
VERTEX
  8
0
 10
1697.500000
 20
4317.744609
 42
0.147958
  0
VERTEX
  8
0
 10
1712.238051
 20
4322.021048
 42
0.149599
  0
VERTEX
  8
0
 10
1722.057047
 20
4333.735355
 42
0.149945
  0
VERTEX
  8
0
 10
1723.625328
 20
4348.916547
 42
0.148749
  0
VERTEX
  8
0
 10
1716.421053
 20
4362.421053
 42
0.074484
  0
VERTEX
  8
0
 10
1710.537603
 20
4366.771474
 42
0.068002
  0
VERTEX
  8
0
 10
1703.454240
 20
4369.374900
 42
0.067649
  0
VERTEX
  8
0
 10
1695.896620
 20
4369.990905
 42
0.072289
  0
SEQEND
  0
POLYLINE
  8
0
 66
1
 70
1
  0
VERTEX
  8
0
 10
1706.055603
 20
4367.480382
 42
-0.040611
  0
VERTEX
  8
0
 10
1710.284642
 20
4365.589967
 42
-0.046934
  0
VERTEX
  8
0
 10
1713.938163
 20
4363.115378
 42
-0.046946
  0
VERTEX
  8
0
 10
1717.065307
 20
4360.003443
 42
-0.040669
  0
VERTEX
  8
0
 10
1719.727704
 20
4356.216114
 42
-0.026014
  0
VERTEX
  8
0
 10
1721.195916
 20
4353.391883
 42
-0.051556
  0
VERTEX
  8
0
 10
1721.999619
 20
4351.001693
 42
-0.042922
  0
VERTEX
  8
0
 10
1722.378163
 20
4348.226391
 42
-0.013216
  0
VERTEX
  8
0
 10
1722.476822
 20
4344.000000
 42
-0.056801
  0
VERTEX
  8
0
 10
1721.573310
 20
4336.284410
 42
-0.083522
  0
VERTEX
  8
0
 10
1718.941130
 20
4330.001151
 42
-0.084970
  0
VERTEX
  8
0
 10
1714.439038
 20
4324.999678
 42
-0.060899
  0
VERTEX
  8
0
 10
1708.000000
 20
4321.080913
 42
-0.157347
  0
VERTEX
  8
0
 10
1693.143706
 20
4319.395994
 42
-0.154133
  0
VERTEX
  8
0
 10
1679.960748
 20
4326.684758
 42
-0.153850
  0
VERTEX
  8
0
 10
1673.338676
 20
4340.234990
 42
-0.156729
  0
VERTEX
  8
0
 10
1675.750000
 20
4355.020540
 42
-0.085113
  0
VERTEX
  8
0
 10
1681.210496
 20
4362.317786
 42
-0.092386
  0
VERTEX
  8
0
 10
1688.650540
 20
4367.132106
 42
-0.093443
  0
VERTEX
  8
0
 10
1697.252370
 20
4368.909188
 42
-0.089379
  0
SEQEND
  0
POLYLINE
  8
0
 66
1
 70
1
  0
VERTEX
  8
0
 10
65.172749
 20
4274.151346
 42
0.104491
  0
VERTEX
  8
0
 10
55.727551
 20
4268.357763
 42
0.107067
  0
VERTEX
  8
0
 10
49.532260
 20
4259.283464
 42
0.106941
  0
VERTEX
  8
0
 10
47.643034
 20
4248.449692
 42
0.104020
  0
VERTEX
  8
0
 10
50.365458
 20
4237.685466
 42
0.171044
  0
VERTEX
  8
0
 10
62.595739
 20
4225.659545
 42
0.169610
  0
VERTEX
  8
0
 10
79.711648
 20
4223.905193
 42
0.168412
  0
VERTEX
  8
0
 10
94.284669
 20
4233.196222
 42
0.168964
  0
VERTEX
  8
0
 10
99.956076
 20
4249.500000
 42
0.119591
  0
VERTEX
  8
0
 10
97.036227
 20
4261.533052
 42
0.120109
  0
VERTEX
  8
0
 10
88.928843
 20
4270.867252
 42
0.120360
  0
VERTEX
  8
0
 10
77.450808
 20
4275.411587
 42
0.120425
  0
SEQEND
  0
POLYLINE
  8
0
 66
1
 70
1
  0
VERTEX
  8
0
 10
85.860125
 20
4271.413401
 42
-0.048215
  0
VERTEX
  8
0
 10
91.561264
 20
4266.979313
 42
-0.073019
  0
VERTEX
  8
0
 10
95.445217
 20
4262.052990
 42
-0.075067
  0
VERTEX
  8
0
 10
97.680482
 20
4256.323980
 42
-0.054193
  0
VERTEX
  8
0
 10
98.460886
 20
4249.500000
 42
-0.033835
  0
VERTEX
  8
0
 10
98.125360
 20
4244.100131
 42
-0.059407
  0
VERTEX
  8
0
 10
97.026722
 20
4239.768147
 42
-0.061841
  0
VERTEX
  8
0
 10
94.978626
 20
4235.933657
 42
-0.040026
  0
VERTEX
  8
0
 10
91.756550
 20
4232.062197
 42
-0.146445
  0
VERTEX
  8
0
 10
78.888529
 20
4224.934155
 42
-0.151490
  0
VERTEX
  8
0
 10
64.409522
 20
4226.177411
 42
-0.151891
  0
VERTEX
  8
0
 10
53.201001
 20
4235.387332
 42
-0.147332
  0
VERTEX
  8
0
 10
49.021962
 20
4249.446344
 42
-0.104089
  0
VERTEX
  8
0
 10
51.311235
 20
4260.131394
 42
-0.115187
  0
VERTEX
  8
0
 10
57.677785
 20
4268.543600
 42
-0.113558
  0
VERTEX
  8
0
 10
67.193200
 20
4273.346422
 42
-0.099000
  0
VERTEX
  8
0
 10
78.360125
 20
4273.837293
 42
-0.021869
  0
VERTEX
  8
0
 10
80.414423
 20
4273.426937
 42
-0.017927
  0
VERTEX
  8
0
 10
82.568052
 20
4272.815245
 42
-0.018293
  0
VERTEX
  8
0
 10
84.509332
 20
4272.108442
 42
-0.044759
  0
SEQEND
  0
POLYLINE
  8
0
 66
1
 70
1
  0
VERTEX
  8
0
 10
1689.172749
 20
4274.094869
 42
0.108170
  0
VERTEX
  8
0
 10
1679.786611
 20
4268.365459
 42
0.107265
  0
VERTEX
  8
0
 10
1673.618245
 20
4259.223060
 42
0.106025
  0
VERTEX
  8
0
 10
1671.751600
 20
4248.254734
 42
0.103448
  0
VERTEX
  8
0
 10
1674.515276
 20
4237.379250
 42
0.070116
  0
VERTEX
  8
0
 10
1678.521552
 20
4231.460228
 42
0.072385
  0
VERTEX
  8
0
 10
1683.969080
 20
4226.952669
 42
0.070858
  0
VERTEX
  8
0
 10
1690.582834
 20
4224.115336
 42
0.063014
  0
VERTEX
  8
0
 10
1698.000000
 20
4223.085847
 42
0.089278
  0
VERTEX
  8
0
 10
1705.684143
 20
4224.373486
 42
0.069074
  0
VERTEX
  8
0
 10
1713.219159
 20
4228.315875
 42
0.069776
  0
VERTEX
  8
0
 10
1719.323277
 20
4234.109379
 42
0.095559
  0
VERTEX
  8
0
 10
1722.823983
 20
4240.806843
 42
0.094911
  0
VERTEX
  8
0
 10
1723.904058
 20
4251.375697
 42
0.096446
  0
VERTEX
  8
0
 10
1720.987145
 20
4261.530535
 42
0.098676
  0
VERTEX
  8
0
 10
1714.553508
 20
4269.672480
 42
0.104549
  0
VERTEX
  8
0
 10
1705.612179
 20
4274.522530
 42
0.027549
  0
VERTEX
  8
0
 10
1701.136924
 20
4275.587336
 42
0.051173
  0
VERTEX
  8
0
 10
1697.419971
 20
4275.871297
 42
0.050522
  0
VERTEX
  8
0
 10
1693.691255
 20
4275.395316
 42
0.026160
  0
SEQEND
  0
POLYLINE
  8
0
 66
1
 70
1
  0
VERTEX
  8
0
 10
1710.296304
 20
4271.122990
 42
-0.124407
  0
VERTEX
  8
0
 10
1719.552210
 20
4261.558898
 42
-0.131693
  0
VERTEX
  8
0
 10
1722.900871
 20
4248.950787
 42
-0.135142
  0
VERTEX
  8
0
 10
1719.471337
 20
4236.603818
 42
-0.133987
  0
VERTEX
  8
0
 10
1710.197454
 20
4227.703985
 42
-0.064975
  0
VERTEX
  8
0
 10
1703.125229
 20
4224.971793
 42
-0.076667
  0
VERTEX
  8
0
 10
1695.983938
 20
4224.357124
 42
-0.077633
  0
VERTEX
  8
0
 10
1689.061205
 20
4225.920671
 42
-0.068868
  0
VERTEX
  8
0
 10
1682.626751
 20
4229.558826
 42
-0.087647
  0
VERTEX
  8
0
 10
1677.280441
 20
4235.369190
 42
-0.074963
  0
VERTEX
  8
0
 10
1673.889598
 20
4242.975842
 42
-0.075461
  0
VERTEX
  8
0
 10
1672.906524
 20
4251.194455
 42
-0.091035
  0
VERTEX
  8
0
 10
1674.548827
 20
4258.782119
 42
-0.057587
  0
VERTEX
  8
0
 10
1676.454632
 20
4262.191067
 42
-0.029123
  0
VERTEX
  8
0
 10
1679.564505
 20
4266.012873
 42
-0.029123
  0
VERTEX
  8
0
 10
1683.097689
 20
4269.447721
 42
-0.057542
  0
VERTEX
  8
0
 10
1686.326400
 20
4271.647609
 42
-0.074484
  0
VERTEX
  8
0
 10
1691.890302
 20
4273.581095
 42
-0.051957
  0
VERTEX
  8
0
 10
1698.524015
 20
4274.125863
 42
-0.052387
  0
VERTEX
  8
0
 10
1705.052817
 20
4273.295130
 42
-0.080923
  0
SEQEND
  0
POLYLINE
  8
0
 66
1
 70
1
  0
VERTEX
  8
0
 10
57.204958
 20
3878.166444
 42
0.039048
  0
VERTEX
  8
0
 10
52.507451
 20
3876.063975
 42
0.042244
  0
VERTEX
  8
0
 10
48.323771
 20
3873.303029
 42
0.041490
  0
VERTEX
  8
0
 10
44.601002
 20
3869.830072
 42
0.035279
  0
VERTEX
  8
0
 10
41.276933
 20
3865.605283
 42
0.031803
  0
VERTEX
  8
0
 10
38.751885
 20
3861.320595
 42
0.046899
  0
VERTEX
  8
0
 10
37.152827
 20
3857.260796
 42
0.044626
  0
VERTEX
  8
0
 10
36.289248
 20
3852.825371
 42
0.025553
  0
VERTEX
  8
0
 10
36.005577
 20
3847.375727
 42
0.118677
  0
VERTEX
  8
0
 10
39.526505
 20
3832.691885
 42
0.122452
  0
VERTEX
  8
0
 10
49.321588
 20
3821.416975
 42
0.120791
  0
VERTEX
  8
0
 10
63.375186
 20
3815.943295
 42
0.113476
  0
VERTEX
  8
0
 10
78.720239
 20
3817.405361
 42
0.061701
  0
VERTEX
  8
0
 10
83.751732
 20
3819.800109
 42
0.039721
  0
VERTEX
  8
0
 10
88.913163
 20
3823.698435
 42
0.039265
  0
VERTEX
  8
0
 10
93.477214
 20
3828.442756
 42
0.053897
  0
VERTEX
  8
0
 10
96.719038
 20
3833.392402
 42
0.059232
  0
VERTEX
  8
0
 10
98.923191
 20
3839.359506
 42
0.047063
  0
VERTEX
  8
0
 10
99.892307
 20
3846.164845
 42
0.046668
  0
VERTEX
  8
0
 10
99.574107
 20
3853.096649
 42
0.055454
  0
VERTEX
  8
0
 10
97.954588
 20
3859.440889
 42
0.056329
  0
VERTEX
  8
0
 10
95.244323
 20
3864.733490
 42
0.042214
  0
VERTEX
  8
0
 10
91.173846
 20
3869.869386
 42
0.042306
  0
VERTEX
  8
0
 10
86.311567
 20
3874.235405
 42
0.057511
  0
VERTEX
  8
0
 10
81.234558
 20
3877.225252
 42
0.055756
  0
VERTEX
  8
0
 10
75.737826
 20
3878.961342
 42
0.038865
  0
VERTEX
  8
0
 10
69.271435
 20
3879.720323
 42
0.038918
  0
VERTEX
  8
0
 10
62.778934
 20
3879.469268
 42
0.056643
  0
SEQEND
  0
POLYLINE
  8
0
 66
1
 70
1
  0
VERTEX
  8
0
 10
81.660544
 20
3875.462041
 42
-0.048195
  0
VERTEX
  8
0
 10
86.058278
 20
3872.760760
 42
-0.040017
  0
VERTEX
  8
0
 10
90.162594
 20
3869.108870
 42
-0.039522
  0
VERTEX
  8
0
 10
93.684328
 20
3864.795204
 42
-0.043836
  0
VERTEX
  8
0
 10
96.347717
 20
3860.122405
 42
-0.068762
  0
VERTEX
  8
0
 10
98.068498
 20
3854.421125
 42
-0.041403
  0
VERTEX
  8
0
 10
98.584992
 20
3847.364517
 42
-0.041456
  0
VERTEX
  8
0
 10
97.932743
 20
3840.337989
 42
-0.070264
  0
VERTEX
  8
0
 10
96.101513
 20
3834.731915
 42
-0.050242
  0
VERTEX
  8
0
 10
93.037243
 20
3829.805249
 42
-0.041202
  0
VERTEX
  8
0
 10
88.859110
 20
3825.221870
 42
-0.041674
  0
VERTEX
  8
0
 10
84.049233
 20
3821.442736
 42
-0.055499
  0
VERTEX
  8
0
 10
79.101922
 20
3818.918588
 42
-0.022892
  0
VERTEX
  8
0
 10
75.935156
 20
3817.886281
 42
-0.035429
  0
VERTEX
  8
0
 10
73.116196
 20
3817.319203
 42
-0.031805
  0
VERTEX
  8
0
 10
70.034047
 20
3817.121368
 42
-0.014519
  0
VERTEX
  8
0
 10
66.000000
 20
3817.236473
 42
-0.036089
  0
VERTEX
  8
0
 10
59.802909
 20
3818.044827
 42
-0.056542
  0
VERTEX
  8
0
 10
54.697499
 20
3819.707406
 42
-0.056651
  0
VERTEX
  8
0
 10
50.101151
 20
3822.468635
 42
-0.036392
  0
VERTEX
  8
0
 10
45.447823
 20
3826.607079
 42
-0.136486
  0
VERTEX
  8
0
 10
37.910073
 20
3840.409814
 42
-0.130111
  0
VERTEX
  8
0
 10
38.393313
 20
3856.397964
 42
-0.128600
  0
VERTEX
  8
0
 10
46.750805
 20
3870.190401
 42
-0.131844
  0
VERTEX
  8
0
 10
60.717502
 20
3877.966943
 42
-0.056369
  0
VERTEX
  8
0
 10
65.506187
 20
3878.608831
 42
-0.034932
  0
VERTEX
  8
0
 10
71.180038
 20
3878.329426
 42
-0.034596
  0
VERTEX
  8
0
 10
76.855232
 20
3877.248537
 42
-0.049326
  0
SEQEND
  0
POLYLINE
  8
0
 66
1
 70
1
  0
VERTEX
  8
0
 10
1694.500000
 20
3878.667568
 42
0.084131
  0
VERTEX
  8
0
 10
1684.110563
 20
3873.175848
 42
0.091468
  0
VERTEX
  8
0
 10
1676.458775
 20
3864.698277
 42
0.091810
  0
VERTEX
  8
0
 10
1672.354756
 20
3854.076557
 42
0.085496
  0
VERTEX
  8
0
 10
1672.179418
 20
3842.409709
 42
0.087142
  0
VERTEX
  8
0
 10
1675.765071
 20
3831.920649
 42
0.088085
  0
VERTEX
  8
0
 10
1682.700640
 20
3823.325666
 42
0.088578
  0
VERTEX
  8
0
 10
1692.133897
 20
3817.678365
 42
0.089397
  0
VERTEX
  8
0
 10
1702.907906
 20
3815.668608
 42
0.038820
  0
VERTEX
  8
0
 10
1709.797003
 20
3816.162046
 42
0.057563
  0
VERTEX
  8
0
 10
1715.633563
 20
3817.740377
 42
0.058392
  0
VERTEX
  8
0
 10
1720.896398
 20
3820.586543
 42
0.041395
  0
VERTEX
  8
0
 10
1726.056948
 20
3824.890603
 42
0.117241
  0
VERTEX
  8
0
 10
1734.294463
 20
3838.044652
 42
0.122881
  0
VERTEX
  8
0
 10
1735.537876
 20
3853.261275
 42
0.123427
  0
VERTEX
  8
0
 10
1729.490679
 20
3867.227560
 42
0.118930
  0
VERTEX
  8
0
 10
1717.500000
 20
3876.920417
 42
0.057381
  0
VERTEX
  8
0
 10
1712.353035
 20
3878.674393
 42
0.034509
  0
VERTEX
  8
0
 10
1705.960890
 20
3879.606557
 42
0.034661
  0
VERTEX
  8
0
 10
1699.582856
 20
3879.648159
 42
0.063991
  0
SEQEND
  0
POLYLINE
  8
0
 66
1
 70
1
  0
VERTEX
  8
0
 10
1716.343131
 20
3876.128768
 42
-0.046125
  0
VERTEX
  8
0
 10
1720.955952
 20
3873.503514
 42
-0.040277
  0
VERTEX
  8
0
 10
1725.239615
 20
3869.967330
 42
-0.040271
  0
VERTEX
  8
0
 10
1728.901535
 20
3865.789514
 42
-0.046076
  0
VERTEX
  8
0
 10
1731.663876
 20
3861.254577
 42
-0.059705
  0
VERTEX
  8
0
 10
1733.799997
 20
3855.133126
 42
-0.050037
  0
VERTEX
  8
0
 10
1734.599754
 20
3848.298491
 42
-0.049998
  0
VERTEX
  8
0
 10
1734.025925
 20
3841.435479
 42
-0.059368
  0
VERTEX
  8
0
 10
1732.093201
 20
3835.229889
 42
-0.060596
  0
VERTEX
  8
0
 10
1729.020793
 20
3830.122509
 42
-0.041018
  0
VERTEX
  8
0
 10
1724.412094
 20
3825.121559
 42
-0.041234
  0
VERTEX
  8
0
 10
1719.092695
 20
3820.977928
 42
-0.064760
  0
VERTEX
  8
0
 10
1713.882503
 20
3818.460974
 42
-0.069084
  0
VERTEX
  8
0
 10
1705.909039
 20
3816.987521
 42
-0.062511
  0
VERTEX
  8
0
 10
1697.548468
 20
3817.658429
 42
-0.062179
  0
VERTEX
  8
0
 10
1689.571459
 20
3820.383028
 42
-0.066900
  0
VERTEX
  8
0
 10
1682.724206
 20
3824.937288
 42
-0.085146
  0
VERTEX
  8
0
 10
1677.445503
 20
3831.459918
 42
-0.066111
  0
VERTEX
  8
0
 10
1674.066052
 20
3839.958770
 42
-0.065098
  0
VERTEX
  8
0
 10
1672.986960
 20
3849.185505
 42
-0.076925
  0
VERTEX
  8
0
 10
1674.447256
 20
3857.841201
 42
-0.072318
  0
VERTEX
  8
0
 10
1677.750309
 20
3864.423948
 42
-0.056756
  0
VERTEX
  8
0
 10
1683.039090
 20
3870.419585
 42
-0.056065
  0
VERTEX
  8
0
 10
1689.619163
 20
3875.142578
 42
-0.066220
  0
VERTEX
  8
0
 10
1696.734467
 20
3877.970467
 42
-0.055175
  0
VERTEX
  8
0
 10
1701.138323
 20
3878.572265
 42
-0.029814
  0
VERTEX
  8
0
 10
1706.613984
 20
3878.385814
 42
-0.029785
  0
VERTEX
  8
0
 10
1712.051191
 20
3877.546248
 42
-0.053166
  0
SEQEND
  0
POLYLINE
  8
0
 66
1
 70
1
  0
VERTEX
  8
0
 10
2069.950561
 20
4788.699978
 42
0.058472
  0
VERTEX
  8
0
 10
2063.425396
 20
4785.995656
 42
0.052097
  0
VERTEX
  8
0
 10
2057.422380
 20
4781.765919
 42
0.051654
  0
VERTEX
  8
0
 10
2052.376229
 20
4776.345677
 42
0.055280
  0
VERTEX
  8
0
 10
2048.679511
 20
4770.122405
 42
0.068279
  0
VERTEX
  8
0
 10
2047.018956
 20
4764.541779
 42
0.038469
  0
VERTEX
  8
0
 10
2046.481760
 20
4757.484056
 42
0.038457
  0
VERTEX
  8
0
 10
2047.032393
 20
4750.421446
 42
0.067797
  0
VERTEX
  8
0
 10
2048.703072
 20
4744.824330
 42
0.049007
  0
VERTEX
  8
0
 10
2051.503471
 20
4739.971588
 42
0.038026
  0
VERTEX
  8
0
 10
2055.421874
 20
4735.294325
 42
0.037898
  0
VERTEX
  8
0
 10
2060.021351
 20
4731.246589
 42
0.047557
  0
VERTEX
  8
0
 10
2064.858493
 20
4728.275084
 42
0.021973
  0
VERTEX
  8
0
 10
2068.160803
 20
4726.832360
 42
0.042003
  0
VERTEX
  8
0
 10
2070.937214
 20
4726.021961
 42
0.036802
  0
VERTEX
  8
0
 10
2074.042246
 20
4725.627162
 42
0.013225
  0
VERTEX
  8
0
 10
2078.500000
 20
4725.509231
 42
0.044380
  0
VERTEX
  8
0
 10
2085.596276
 20
4726.140337
 42
0.060250
  0
VERTEX
  8
0
 10
2091.739346
 20
4728.025528
 42
0.060378
  0
VERTEX
  8
0
 10
2097.246189
 20
4731.316939
 42
0.044818
  0
VERTEX
  8
0
 10
2102.442292
 20
4736.147039
 42
0.051332
  0
VERTEX
  8
0
 10
2105.747572
 20
4740.682837
 42
0.036513
  0
VERTEX
  8
0
 10
2108.509190
 20
4746.339511
 42
0.036886
  0
VERTEX
  8
0
 10
2110.382543
 20
4752.239808
 42
0.058491
  0
VERTEX
  8
0
 10
2111.000000
 20
4757.500000
 42
0.038806
  0
VERTEX
  8
0
 10
2110.868127
 20
4759.196576
 42
0.011806
  0
VERTEX
  8
0
 10
2110.409468
 20
4761.735008
 42
0.011745
  0
VERTEX
  8
0
 10
2109.759242
 20
4764.564823
 42
0.012558
  0
VERTEX
  8
0
 10
2108.989680
 20
4767.297990
 42
0.100508
  0
VERTEX
  8
0
 10
2103.214943
 20
4777.870657
 42
0.092528
  0
VERTEX
  8
0
 10
2093.624092
 20
4785.722129
 42
0.092858
  0
VERTEX
  8
0
 10
2081.878541
 20
4789.566167
 42
0.102150
  0
SEQEND
  0
POLYLINE
  8
0
 66
1
 70
1
  0
VERTEX
  8
0
 10
2083.566341
 20
4787.922854
 42
-0.131737
  0
VERTEX
  8
0
 10
2098.294588
 20
4780.961321
 42
-0.133344
  0
VERTEX
  8
0
 10
2107.482537
 20
4767.593506
 42
-0.134355
  0
VERTEX
  8
0
 10
2108.610045
 20
4751.496379
 42
-0.134586
  0
VERTEX
  8
0
 10
2101.382131
 20
4737.080125
 42
-0.044540
  0
VERTEX
  8
0
 10
2096.431680
 20
4732.473237
 42
-0.057977
  0
VERTEX
  8
0
 10
2091.139534
 20
4729.267623
 42
-0.058722
  0
VERTEX
  8
0
 10
2085.308569
 20
4727.390219
 42
-0.047378
  0
VERTEX
  8
0
 10
2078.755811
 20
4726.736091
 42
-0.041718
  0
VERTEX
  8
0
 10
2072.272238
 20
4727.246614
 42
-0.057117
  0
VERTEX
  8
0
 10
2066.643934
 20
4728.841179
 42
-0.057630
  0
VERTEX
  8
0
 10
2061.559908
 20
4731.653815
 42
-0.043503
  0
VERTEX
  8
0
 10
2056.704715
 20
4735.805127
 42
-0.091834
  0
VERTEX
  8
0
 10
2049.927286
 20
4745.855809
 42
-0.100505
  0
VERTEX
  8
0
 10
2047.479869
 20
4757.349975
 42
-0.101183
  0
VERTEX
  8
0
 10
2049.713570
 20
4768.826802
 42
-0.094334
  0
VERTEX
  8
0
 10
2056.297843
 20
4778.832522
 42
-0.033237
  0
VERTEX
  8
0
 10
2060.125038
 20
4782.286758
 42
-0.041086
  0
VERTEX
  8
0
 10
2064.126494
 20
4784.940805
 42
-0.042705
  0
VERTEX
  8
0
 10
2068.370509
 20
4786.826730
 42
-0.041309
  0
VERTEX
  8
0
 10
2072.920447
 20
4787.989660
 42
0.002114
  0
VERTEX
  8
0
 10
2074.680948
 20
4788.295293
 42
0.003430
  0
VERTEX
  8
0
 10
2076.174244
 20
4788.571627
 42
0.000609
  0
VERTEX
  8
0
 10
2077.487695
 20
4788.825669
 42
0.219678
  0
VERTEX
  8
0
 10
2077.566341
 20
4788.882381
 42
-0.313176
  0
VERTEX
  8
0
 10
2077.646084
 20
4788.920926
 42
-0.000455
  0
VERTEX
  8
0
 10
2079.356206
 20
4788.649038
 42
-0.003268
  0
VERTEX
  8
0
 10
2081.286472
 20
4788.327396
 42
-0.001982
  0
SEQEND
  0
POLYLINE
  8
0
 66
1
 70
1
  0
VERTEX
  8
0
 10
3114.552486
 20
4788.405021
 42
0.074134
  0
VERTEX
  8
0
 10
3105.105432
 20
4783.756855
 42
0.083576
  0
VERTEX
  8
0
 10
3097.863292
 20
4776.706129
 42
0.083701
  0
VERTEX
  8
0
 10
3093.336103
 20
4767.682552
 42
0.074638
  0
VERTEX
  8
0
 10
3091.777778
 20
4757.301451
 42
0.069379
  0
VERTEX
  8
0
 10
3093.051181
 20
4748.168514
 42
0.074675
  0
VERTEX
  8
0
 10
3096.768997
 20
4739.978881
 42
0.073194
  0
VERTEX
  8
0
 10
3102.805628
 20
4733.114842
 42
0.062987
  0
VERTEX
  8
0
 10
3110.863875
 20
4727.863945
 42
0.070310
  0
VERTEX
  8
0
 10
3116.671991
 20
4725.995018
 42
0.045413
  0
VERTEX
  8
0
 10
3123.726246
 20
4725.428305
 42
0.044916
  0
VERTEX
  8
0
 10
3130.880532
 20
4726.148808
 42
0.062372
  0
VERTEX
  8
0
 10
3137.000000
 20
4728.140968
 42
0.042642
  0
VERTEX
  8
0
 10
3141.742713
 20
4730.885116
 42
0.040072
  0
VERTEX
  8
0
 10
3146.058131
 20
4734.445843
 42
0.039560
  0
VERTEX
  8
0
 10
3149.800978
 20
4738.698296
 42
0.039191
  0
VERTEX
  8
0
 10
3152.840403
 20
4743.500000
 42
0.026731
  0
VERTEX
  8
0
 10
3154.250628
 20
4746.554489
 42
0.048192
  0
VERTEX
  8
0
 10
3155.019330
 20
4749.200073
 42
0.036794
  0
VERTEX
  8
0
 10
3155.381022
 20
4752.389862
 42
0.009839
  0
VERTEX
  8
0
 10
3155.481585
 20
4757.500000
 42
0.009839
  0
VERTEX
  8
0
 10
3155.381022
 20
4762.610138
 42
0.036794
  0
VERTEX
  8
0
 10
3155.019330
 20
4765.799927
 42
0.048192
  0
VERTEX
  8
0
 10
3154.250628
 20
4768.445511
 42
0.026731
  0
VERTEX
  8
0
 10
3152.840403
 20
4771.500000
 42
0.083137
  0
VERTEX
  8
0
 10
3145.834705
 20
4780.679818
 42
0.084513
  0
VERTEX
  8
0
 10
3136.257309
 20
4787.015134
 42
0.086887
  0
VERTEX
  8
0
 10
3125.363202
 20
4789.709347
 42
0.094872
  0
SEQEND
  0
POLYLINE
  8
0
 66
1
 70
1
  0
VERTEX
  8
0
 10
3136.586482
 20
4785.518992
 42
-0.073532
  0
VERTEX
  8
0
 10
3143.923117
 20
4780.871218
 42
-0.072909
  0
VERTEX
  8
0
 10
3149.625310
 20
4774.287172
 42
-0.072231
  0
VERTEX
  8
0
 10
3153.237189
 20
4766.284709
 42
-0.070055
  0
VERTEX
  8
0
 10
3154.474077
 20
4757.500000
 42
-0.144160
  0
VERTEX
  8
0
 10
3149.560608
 20
4740.812474
 42
-0.143690
  0
VERTEX
  8
0
 10
3136.383239
 20
4729.424747
 42
-0.144091
  0
VERTEX
  8
0
 10
3119.172090
 20
4726.981146
 42
-0.145160
  0
VERTEX
  8
0
 10
3103.437877
 20
4734.263598
 42
-0.080185
  0
VERTEX
  8
0
 10
3097.126663
 20
4741.926313
 42
-0.080774
  0
VERTEX
  8
0
 10
3093.566510
 20
4751.166625
 42
-0.081057
  0
VERTEX
  8
0
 10
3093.124334
 20
4761.030356
 42
-0.081565
  0
VERTEX
  8
0
 10
3095.844627
 20
4770.500000
 42
-0.093548
  0
VERTEX
  8
0
 10
3102.982249
 20
4780.308887
 42
-0.100841
  0
VERTEX
  8
0
 10
3113.034428
 20
4786.529959
 42
-0.100625
  0
VERTEX
  8
0
 10
3124.737631
 20
4788.329947
 42
-0.092745
  0
SEQEND
  0
POLYLINE
  8
0
 66
1
 70
1
  0
VERTEX
  8
0
 10
2069.950561
 20
3152.699978
 42
0.058472
  0
VERTEX
  8
0
 10
2063.425396
 20
3149.995656
 42
0.052097
  0
VERTEX
  8
0
 10
2057.422380
 20
3145.765919
 42
0.051654
  0
VERTEX
  8
0
 10
2052.376229
 20
3140.345677
 42
0.055280
  0
VERTEX
  8
0
 10
2048.679511
 20
3134.122405
 42
0.068279
  0
VERTEX
  8
0
 10
2047.018956
 20
3128.541779
 42
0.038469
  0
VERTEX
  8
0
 10
2046.481760
 20
3121.484056
 42
0.038457
  0
VERTEX
  8
0
 10
2047.032393
 20
3114.421446
 42
0.067797
  0
VERTEX
  8
0
 10
2048.703072
 20
3108.824330
 42
0.066417
  0
VERTEX
  8
0
 10
2053.185110
 20
3101.645038
 42
0.061722
  0
VERTEX
  8
0
 10
2059.492917
 20
3095.688399
 42
0.061962
  0
VERTEX
  8
0
 10
2067.038303
 20
3091.470612
 42
0.067995
  0
VERTEX
  8
0
 10
2075.154384
 20
3089.396757
 42
0.025214
  0
VERTEX
  8
0
 10
2078.288989
 20
3089.195952
 42
0.033340
  0
VERTEX
  8
0
 10
2081.145165
 20
3089.347758
 42
0.029411
  0
VERTEX
  8
0
 10
2084.218291
 20
3089.902408
 42
0.014381
  0
VERTEX
  8
0
 10
2088.060624
 20
3090.949796
 42
0.018856
  0
VERTEX
  8
0
 10
2092.157950
 20
3092.365111
 42
0.044787
  0
VERTEX
  8
0
 10
2095.045015
 20
3093.794833
 42
0.042932
  0
VERTEX
  8
0
 10
2097.702404
 20
3095.753365
 42
0.016114
  0
VERTEX
  8
0
 10
2101.080000
 20
3098.920000
 42
0.016114
  0
VERTEX
  8
0
 10
2104.246635
 20
3102.297596
 42
0.042932
  0
VERTEX
  8
0
 10
2106.205167
 20
3104.954985
 42
0.044787
  0
VERTEX
  8
0
 10
2107.634889
 20
3107.842050
 42
0.018856
  0
VERTEX
  8
0
 10
2109.050204
 20
3111.939376
 42
0.014342
  0
VERTEX
  8
0
 10
2110.091472
 20
3115.758093
 42
0.029081
  0
VERTEX
  8
0
 10
2110.646893
 20
3118.821205
 42
0.033238
  0
VERTEX
  8
0
 10
2110.801908
 20
3121.648152
 42
0.026337
  0
VERTEX
  8
0
 10
2110.605136
 20
3124.702581
 42
0.067046
  0
VERTEX
  8
0
 10
2108.516843
 20
3132.850935
 42
0.060692
  0
VERTEX
  8
0
 10
2104.300217
 20
3140.460358
 42
0.061211
  0
VERTEX
  8
0
 10
2098.422096
 20
3146.776237
 42
0.070753
  0
VERTEX
  8
0
 10
2091.451945
 20
3151.124282
 42
0.053470
  0
VERTEX
  8
0
 10
2086.668046
 20
3152.654766
 42
0.032422
  0
VERTEX
  8
0
 10
2080.775395
 20
3153.473000
 42
0.032464
  0
VERTEX
  8
0
 10
2074.845219
 20
3153.521909
 42
0.054912
  0
SEQEND
  0
POLYLINE
  8
0
 66
1
 70
1
  0
VERTEX
  8
0
 10
2091.702613
 20
3149.377027
 42
-0.072748
  0
VERTEX
  8
0
 10
2098.793642
 20
3144.632177
 42
-0.069313
  0
VERTEX
  8
0
 10
2104.364067
 20
3137.984325
 42
-0.069004
  0
VERTEX
  8
0
 10
2107.924597
 20
3130.038008
 42
-0.070984
  0
VERTEX
  8
0
 10
2109.142857
 20
3121.500000
 42
-0.042465
  0
VERTEX
  8
0
 10
2108.610816
 20
3115.246815
 42
-0.057022
  0
VERTEX
  8
0
 10
2107.020457
 20
3109.791805
 42
-0.056465
  0
VERTEX
  8
0
 10
2104.223890
 20
3104.797001
 42
-0.040567
  0
VERTEX
  8
0
 10
2100.080000
 20
3099.920000
 42
-0.090512
  0
VERTEX
  8
0
 10
2090.265114
 20
3093.134934
 42
-0.101390
  0
VERTEX
  8
0
 10
2079.072285
 20
3090.605611
 42
-0.101131
  0
VERTEX
  8
0
 10
2067.763963
 20
3092.679993
 42
-0.089605
  0
VERTEX
  8
0
 10
2057.620255
 20
3099.064089
 42
-0.043215
  0
VERTEX
  8
0
 10
2053.079937
 20
3103.997246
 42
-0.060402
  0
VERTEX
  8
0
 10
2050.017246
 20
3109.142445
 42
-0.060412
  0
VERTEX
  8
0
 10
2048.273211
 20
3114.869838
 42
-0.043246
  0
VERTEX
  8
0
 10
2047.681001
 20
3121.546076
 42
-0.125292
  0
VERTEX
  8
0
 10
2051.463226
 20
3136.530246
 42
-0.128321
  0
VERTEX
  8
0
 10
2061.929108
 20
3147.724549
 42
-0.128268
  0
VERTEX
  8
0
 10
2076.533988
 20
3152.380762
 42
-0.125135
  0
SEQEND
  0
POLYLINE
  8
0
 66
1
 70
1
  0
VERTEX
  8
0
 10
3116.382679
 20
3153.110169
 42
0.037240
  0
VERTEX
  8
0
 10
3111.971433
 20
3151.615709
 42
0.031800
  0
VERTEX
  8
0
 10
3107.581574
 20
3149.415149
 42
0.032419
  0
VERTEX
  8
0
 10
3103.607804
 20
3146.736801
 42
0.044580
  0
VERTEX
  8
0
 10
3100.448739
 20
3143.811580
 42
0.070255
  0
VERTEX
  8
0
 10
3094.873776
 20
3135.564522
 42
0.075804
  0
VERTEX
  8
0
 10
3091.980666
 20
3126.304907
 42
0.076940
  0
VERTEX
  8
0
 10
3092.000428
 20
3116.722653
 42
0.075600
  0
VERTEX
  8
0
 10
3094.909433
 20
3107.532403
 42
0.065305
  0
VERTEX
  8
0
 10
3100.013716
 20
3099.874139
 42
0.075126
  0
VERTEX
  8
0
 10
3106.712049
 20
3094.203405
 42
0.074877
  0
VERTEX
  8
0
 10
3114.806402
 20
3090.751879
 42
0.064294
  0
VERTEX
  8
0
 10
3124.000000
 20
3089.594979
 42
0.040954
  0
VERTEX
  8
0
 10
3130.806344
 20
3090.175564
 42
0.059675
  0
VERTEX
  8
0
 10
3136.576949
 20
3091.873521
 42
0.060026
  0
VERTEX
  8
0
 10
3141.758866
 20
3094.876954
 42
0.042044
  0
VERTEX
  8
0
 10
3146.795860
 20
3099.377669
 42
0.115484
  0
VERTEX
  8
0
 10
3154.515971
 20
3112.627235
 42
0.121438
  0
VERTEX
  8
0
 10
3155.358365
 20
3127.671204
 42
0.121924
  0
VERTEX
  8
0
 10
3149.116867
 20
3141.337932
 42
0.117010
  0
VERTEX
  8
0
 10
3137.139164
 20
3150.764684
 42
0.048311
  0
VERTEX
  8
0
 10
3132.363114
 20
3152.439508
 42
0.032062
  0
VERTEX
  8
0
 10
3126.642093
 20
3153.460623
 42
0.032383
  0
VERTEX
  8
0
 10
3120.972914
 20
3153.731696
 42
0.058877
  0
SEQEND
  0
POLYLINE
  8
0
 66
1
 70
1
  0
VERTEX
  8
0
 10
3136.500000
 20
3149.571428
 42
-0.032463
  0
VERTEX
  8
0
 10
3141.306560
 20
3147.019697
 42
-0.051325
  0
VERTEX
  8
0
 10
3145.002100
 20
3144.178042
 42
-0.050349
  0
VERTEX
  8
0
 10
3148.089248
 20
3140.601644
 42
-0.029882
  0
VERTEX
  8
0
 10
3151.043862
 20
3135.801387
 42
-0.016730
  0
VERTEX
  8
0
 10
3152.884930
 20
3132.071769
 42
-0.045639
  0
VERTEX
  8
0
 10
3153.848300
 20
3129.294318
 42
-0.044328
  0
VERTEX
  8
0
 10
3154.306658
 20
3126.342618
 42
-0.015066
  0
VERTEX
  8
0
 10
3154.460136
 20
3122.000000
 42
-0.015157
  0
VERTEX
  8
0
 10
3154.357703
 20
3117.922197
 42
-0.034828
  0
VERTEX
  8
0
 10
3153.974929
 20
3114.877318
 42
-0.038399
  0
VERTEX
  8
0
 10
3153.201979
 20
3112.100049
 42
-0.022563
  0
VERTEX
  8
0
 10
3151.879745
 20
3108.913518
 42
-0.139309
  0
VERTEX
  8
0
 10
3140.420434
 20
3095.722894
 42
-0.143621
  0
VERTEX
  8
0
 10
3123.874973
 20
3090.724328
 42
-0.144564
  0
VERTEX
  8
0
 10
3107.332216
 20
3095.464024
 42
-0.141620
  0
VERTEX
  8
0
 10
3095.859186
 20
3108.459630
 42
-0.081058
  0
VERTEX
  8
0
 10
3093.189375
 20
3117.739907
 42
-0.077439
  0
VERTEX
  8
0
 10
3093.544443
 20
3127.541500
 42
-0.077966
  0
VERTEX
  8
0
 10
3096.854845
 20
3136.712863
 42
-0.083966
  0
VERTEX
  8
0
 10
3102.755364
 20
3144.167466
 42
-0.015925
  0
VERTEX
  8
0
 10
3106.188427
 20
3147.070006
 42
-0.043101
  0
VERTEX
  8
0
 10
3108.847501
 20
3148.826854
 42
-0.042406
  0
VERTEX
  8
0
 10
3111.793002
 20
3150.117401
 42
-0.015014
  0
VERTEX
  8
0
 10
3116.197403
 20
3151.470978
 42
-0.045967
  0
VERTEX
  8
0
 10
3121.165847
 20
3152.355940
 42
-0.044451
  0
VERTEX
  8
0
 10
3126.269551
 20
3152.333249
 42
-0.043300
  0
VERTEX
  8
0
 10
3131.413212
 20
3151.398127
 42
-0.039211
  0
SEQEND
  0
POLYLINE
  8
0
 66
1
 70
1
  0
VERTEX
  8
0
 10
57.204958
 20
3624.166444
 42
0.039048
  0
VERTEX
  8
0
 10
52.507451
 20
3622.063975
 42
0.042244
  0
VERTEX
  8
0
 10
48.323771
 20
3619.303029
 42
0.041490
  0
VERTEX
  8
0
 10
44.601002
 20
3615.830072
 42
0.035279
  0
VERTEX
  8
0
 10
41.276933
 20
3611.605283
 42
0.031803
  0
VERTEX
  8
0
 10
38.751885
 20
3607.320595
 42
0.046899
  0
VERTEX
  8
0
 10
37.152827
 20
3603.260796
 42
0.044626
  0
VERTEX
  8
0
 10
36.289248
 20
3598.825371
 42
0.025553
  0
VERTEX
  8
0
 10
36.005577
 20
3593.375727
 42
0.096409
  0
VERTEX
  8
0
 10
38.367155
 20
3581.182708
 42
0.100894
  0
VERTEX
  8
0
 10
45.115075
 20
3570.986855
 42
0.100483
  0
VERTEX
  8
0
 10
55.342094
 20
3564.216812
 42
0.094835
  0
VERTEX
  8
0
 10
67.615622
 20
3561.788199
 42
0.040601
  0
VERTEX
  8
0
 10
73.712271
 20
3562.245763
 42
0.049650
  0
VERTEX
  8
0
 10
79.241123
 20
3563.688684
 42
0.050434
  0
VERTEX
  8
0
 10
84.307031
 20
3566.168912
 42
0.044089
  0
VERTEX
  8
0
 10
89.025554
 20
3569.712884
 42
0.041284
  0
VERTEX
  8
0
 10
93.620239
 20
3574.586319
 42
0.056192
  0
VERTEX
  8
0
 10
96.832855
 20
3579.697123
 42
0.056278
  0
VERTEX
  8
0
 10
98.823637
 20
3585.388703
 42
0.041579
  0
VERTEX
  8
0
 10
99.761581
 20
3592.000000
 42
0.042186
  0
VERTEX
  8
0
 10
99.585547
 20
3598.640914
 42
0.053266
  0
VERTEX
  8
0
 10
98.261694
 20
3604.638336
 42
0.054077
  0
VERTEX
  8
0
 10
95.722763
 20
3610.149127
 42
0.045533
  0
VERTEX
  8
0
 10
91.931092
 20
3615.340944
 42
0.080512
  0
VERTEX
  8
0
 10
84.843696
 20
3621.170580
 42
0.069808
  0
VERTEX
  8
0
 10
75.927767
 20
3624.817455
 42
0.069532
  0
VERTEX
  8
0
 10
66.317535
 20
3625.879221
 42
0.078655
  0
SEQEND
  0
POLYLINE
  8
0
 66
1
 70
1
  0
VERTEX
  8
0
 10
81.611934
 20
3621.489037
 42
-0.047773
  0
VERTEX
  8
0
 10
86.036720
 20
3618.773210
 42
-0.040119
  0
VERTEX
  8
0
 10
90.153226
 20
3615.117675
 42
-0.039670
  0
VERTEX
  8
0
 10
93.679566
 20
3610.802570
 42
-0.043881
  0
VERTEX
  8
0
 10
96.347717
 20
3606.122405
 42
-0.068016
  0
VERTEX
  8
0
 10
98.145454
 20
3600.197965
 42
-0.045561
  0
VERTEX
  8
0
 10
98.625407
 20
3593.122718
 42
-0.045633
  0
VERTEX
  8
0
 10
97.816910
 20
3586.094339
 42
-0.069252
  0
VERTEX
  8
0
 10
95.745528
 20
3580.312571
 42
-0.057457
  0
VERTEX
  8
0
 10
90.931854
 20
3573.232277
 42
-0.070283
  0
VERTEX
  8
0
 10
84.911940
 20
3567.967460
 42
-0.071124
  0
VERTEX
  8
0
 10
77.731199
 20
3564.619825
 42
-0.060779
  0
VERTEX
  8
0
 10
69.500000
 20
3563.182942
 42
-0.075511
  0
VERTEX
  8
0
 10
59.716868
 20
3564.157822
 42
-0.079987
  0
VERTEX
  8
0
 10
50.873842
 20
3567.998027
 42
-0.080871
  0
VERTEX
  8
0
 10
43.758847
 20
3574.374533
 42
-0.079611
  0
VERTEX
  8
0
 10
38.987712
 20
3582.711285
 42
-0.093621
  0
VERTEX
  8
0
 10
37.094658
 20
3593.467033
 42
-0.085528
  0
VERTEX
  8
0
 10
39.145910
 20
3604.543289
 42
-0.085885
  0
VERTEX
  8
0
 10
44.772956
 20
3614.255697
 42
-0.095559
  0
VERTEX
  8
0
 10
53.161526
 20
3621.092049
 42
-0.062940
  0
VERTEX
  8
0
 10
59.877752
 20
3623.678056
 42
-0.057030
  0
VERTEX
  8
0
 10
67.257390
 20
3624.627019
 42
-0.056699
  0
VERTEX
  8
0
 10
74.702636
 20
3623.885081
 42
-0.060677
  0
SEQEND
  0
POLYLINE
  8
0
 66
1
 70
1
  0
VERTEX
  8
0
 10
1694.324175
 20
3624.620388
 42
0.075403
  0
VERTEX
  8
0
 10
1685.174697
 20
3620.012053
 42
0.079330
  0
VERTEX
  8
0
 10
1677.984155
 20
3612.963426
 42
0.080209
  0
VERTEX
  8
0
 10
1673.403439
 20
3604.099016
 42
0.079540
  0
VERTEX
  8
0
 10
1671.827611
 20
3594.217392
 42
0.103098
  0
VERTEX
  8
0
 10
1674.724494
 20
3580.359746
 42
0.111391
  0
VERTEX
  8
0
 10
1682.882459
 20
3569.250816
 42
0.112560
  0
VERTEX
  8
0
 10
1694.941847
 20
3562.797779
 42
0.107066
  0
VERTEX
  8
0
 10
1708.838784
 20
3562.048835
 42
0.038166
  0
VERTEX
  8
0
 10
1714.267984
 20
3563.353153
 42
0.046236
  0
VERTEX
  8
0
 10
1719.080953
 20
3565.413471
 42
0.046431
  0
VERTEX
  8
0
 10
1723.417127
 20
3568.314736
 42
0.039024
  0
VERTEX
  8
0
 10
1727.424176
 20
3572.126890
 42
0.091998
  0
VERTEX
  8
0
 10
1733.908679
 20
3582.731203
 42
0.098228
  0
VERTEX
  8
0
 10
1735.959053
 20
3594.710038
 42
0.098253
  0
VERTEX
  8
0
 10
1733.281575
 20
3606.562035
 42
0.092095
  0
VERTEX
  8
0
 10
1726.248752
 20
3616.803880
 42
0.024793
  0
VERTEX
  8
0
 10
1724.238472
 20
3618.624104
 42
0.017009
  0
VERTEX
  8
0
 10
1721.792744
 20
3620.491988
 42
0.017181
  0
VERTEX
  8
0
 10
1719.308238
 20
3622.133500
 42
0.033055
  0
VERTEX
  8
0
 10
1717.196356
 20
3623.242151
 42
0.057485
  0
VERTEX
  8
0
 10
1712.148141
 20
3624.817505
 42
0.031875
  0
VERTEX
  8
0
 10
1705.736633
 20
3625.616073
 42
0.031929
  0
VERTEX
  8
0
 10
1699.331994
 20
3625.592696
 42
0.062224
  0
SEQEND
  0
POLYLINE
  8
0
 66
1
 70
1
  0
VERTEX
  8
0
 10
1717.611934
 20
3621.489037
 42
-0.067670
  0
VERTEX
  8
0
 10
1724.698577
 20
3616.742606
 42
-0.074321
  0
VERTEX
  8
0
 10
1730.003301
 20
3610.407978
 42
-0.073254
  0
VERTEX
  8
0
 10
1733.277976
 20
3602.716892
 42
-0.063130
  0
VERTEX
  8
0
 10
1734.419269
 20
3594.000000
 42
-0.042050
  0
VERTEX
  8
0
 10
1733.867755
 20
3587.116847
 42
-0.062228
  0
VERTEX
  8
0
 10
1732.148175
 20
3581.318480
 42
-0.062294
  0
VERTEX
  8
0
 10
1729.056520
 20
3576.125818
 42
-0.042246
  0
VERTEX
  8
0
 10
1724.379745
 20
3571.064089
 42
-0.041275
  0
VERTEX
  8
0
 10
1719.184252
 20
3567.048770
 42
-0.060950
  0
VERTEX
  8
0
 10
1714.010993
 20
3564.526075
 42
-0.060222
  0
VERTEX
  8
0
 10
1708.335174
 20
3563.306440
 42
-0.039168
  0
VERTEX
  8
0
 10
1701.620962
 20
3563.218688
 42
-0.083507
  0
VERTEX
  8
0
 10
1690.662404
 20
3565.805998
 42
-0.096717
  0
VERTEX
  8
0
 10
1681.773341
 20
3571.774646
 42
-0.096920
  0
VERTEX
  8
0
 10
1675.795484
 20
3580.637153
 42
-0.084221
  0
VERTEX
  8
0
 10
1673.214854
 20
3591.553791
 42
-0.038593
  0
VERTEX
  8
0
 10
1673.301442
 20
3598.183281
 42
-0.057947
  0
VERTEX
  8
0
 10
1674.483410
 20
3603.840367
 42
-0.059446
  0
VERTEX
  8
0
 10
1676.901718
 20
3608.970660
 42
-0.043294
  0
VERTEX
  8
0
 10
1680.700523
 20
3614.011806
 42
-0.075268
  0
VERTEX
  8
0
 10
1688.710573
 20
3620.599029
 42
-0.084730
  0
VERTEX
  8
0
 10
1698.001042
 20
3624.190960
 42
-0.085538
  0
VERTEX
  8
0
 10
1707.883249
 20
3624.479665
 42
-0.078551
  0
SEQEND
  0
POLYLINE
  8
0
 66
1
 70
1
  0
VERTEX
  8
0
 10
485.500000
 20
3222.631947
 42
0.060998
  0
VERTEX
  8
0
 10
482.546821
 20
3220.790984
 42
0.032483
  0
VERTEX
  8
0
 10
479.374397
 20
3217.869613
 42
0.032514
  0
VERTEX
  8
0
 10
476.638683
 20
3214.599327
 42
0.067875
  0
VERTEX
  8
0
 10
475.061334
 20
3211.684900
 42
0.064738
  0
VERTEX
  8
0
 10
474.177893
 20
3207.932794
 42
0.038261
  0
VERTEX
  8
0
 10
474.060577
 20
3203.325918
 42
0.038339
  0
VERTEX
  8
0
 10
474.644396
 20
3198.777707
 42
0.067491
  0
VERTEX
  8
0
 10
475.902682
 20
3195.210162
 42
0.146297
  0
VERTEX
  8
0
 10
484.015683
 20
3186.748944
 42
0.145973
  0
VERTEX
  8
0
 10
495.449079
 20
3184.120405
 42
0.148018
  0
VERTEX
  8
0
 10
506.336587
 20
3188.191492
 42
0.151211
  0
VERTEX
  8
0
 10
513.028601
 20
3197.586661
 42
0.063351
  0
VERTEX
  8
0
 10
513.933760
 20
3202.236955
 42
0.053069
  0
VERTEX
  8
0
 10
513.730986
 20
3207.262242
 42
0.054553
  0
VERTEX
  8
0
 10
512.500474
 20
3211.975698
 42
0.079181
  0
VERTEX
  8
0
 10
510.359027
 20
3215.695134
 42
0.027577
  0
VERTEX
  8
0
 10
506.743115
 20
3219.690648
 42
0.073141
  0
VERTEX
  8
0
 10
503.647717
 20
3221.966891
 42
0.077458
  0
VERTEX
  8
0
 10
500.135859
 20
3223.183300
 42
0.033751
  0
VERTEX
  8
0
 10
495.218033
 20
3223.733199
 42
0.016515
  0
VERTEX
  8
0
 10
492.193640
 20
3223.766016
 42
0.022669
  0
VERTEX
  8
0
 10
489.479726
 20
3223.582526
 42
0.025706
  0
VERTEX
  8
0
 10
487.192891
 20
3223.203523
 42
0.055043
  0
SEQEND
  0
POLYLINE
  8
0
 66
1
 70
1
  0
VERTEX
  8
0
 10
498.277334
 20
3220.939872
 42
-0.064116
  0
VERTEX
  8
0
 10
501.748053
 20
3219.476834
 42
-0.044105
  0
VERTEX
  8
0
 10
505.239086
 20
3217.010052
 42
-0.044620
  0
VERTEX
  8
0
 10
508.183978
 20
3214.023152
 42
-0.074245
  0
VERTEX
  8
0
 10
510.000185
 20
3210.999554
 42
-0.082500
  0
VERTEX
  8
0
 10
510.924964
 20
3207.015321
 42
-0.048541
  0
VERTEX
  8
0
 10
510.760465
 20
3202.115980
 42
-0.048519
  0
VERTEX
  8
0
 10
509.653761
 20
3197.336261
 42
-0.081960
  0
VERTEX
  8
0
 10
507.730156
 20
3193.712863
 42
-0.131601
  0
VERTEX
  8
0
 10
501.048810
 20
3188.554213
 42
-0.119045
  0
VERTEX
  8
0
 10
492.414772
 20
3187.171300
 42
-0.120024
  0
VERTEX
  8
0
 10
484.155968
 20
3189.881241
 42
-0.135211
  0
VERTEX
  8
0
 10
478.498949
 20
3196.002033
 42
-0.081561
  0
VERTEX
  8
0
 10
477.415611
 20
3199.332473
 42
-0.036461
  0
VERTEX
  8
0
 10
477.051606
 20
3203.940079
 42
-0.036432
  0
VERTEX
  8
0
 10
477.359188
 20
3208.531915
 42
-0.085215
  0
VERTEX
  8
0
 10
478.404986
 20
3211.799660
 42
-0.050813
  0
VERTEX
  8
0
 10
480.232846
 20
3214.581715
 42
-0.045489
  0
VERTEX
  8
0
 10
482.647228
 20
3217.053029
 42
-0.044838
  0
VERTEX
  8
0
 10
485.506693
 20
3219.079436
 42
-0.046134
  0
VERTEX
  8
0
 10
488.655189
 20
3220.541351
 42
-0.011738
  0
VERTEX
  8
0
 10
491.749172
 20
3221.563311
 42
-0.063625
  0
VERTEX
  8
0
 10
493.488418
 20
3221.859128
 42
-0.065371
  0
VERTEX
  8
0
 10
495.225693
 20
3221.703816
 42
-0.012790
  0
SEQEND
  0
POLYLINE
  8
0
 66
1
 70
1
  0
VERTEX
  8
0
 10
1298.500000
 20
3222.652746
 42
0.149337
  0
VERTEX
  8
0
 10
1289.978487
 20
3215.082370
 42
0.142877
  0
VERTEX
  8
0
 10
1286.955223
 20
3203.903242
 42
0.142498
  0
VERTEX
  8
0
 10
1290.414713
 20
3192.829639
 42
0.148356
  0
VERTEX
  8
0
 10
1299.231529
 20
3185.547728
 42
0.104601
  0
VERTEX
  8
0
 10
1307.228620
 20
3184.031815
 42
0.100621
  0
VERTEX
  8
0
 10
1315.276065
 20
3185.845536
 42
0.101180
  0
VERTEX
  8
0
 10
1321.942223
 20
3190.644069
 42
0.107014
  0
VERTEX
  8
0
 10
1326.028601
 20
3197.586661
 42
0.063351
  0
VERTEX
  8
0
 10
1326.933760
 20
3202.236955
 42
0.053069
  0
VERTEX
  8
0
 10
1326.730986
 20
3207.262242
 42
0.054553
  0
VERTEX
  8
0
 10
1325.500474
 20
3211.975698
 42
0.079181
  0
VERTEX
  8
0
 10
1323.359027
 20
3215.695134
 42
0.027577
  0
VERTEX
  8
0
 10
1319.743115
 20
3219.690648
 42
0.073141
  0
VERTEX
  8
0
 10
1316.647717
 20
3221.966891
 42
0.077458
  0
VERTEX
  8
0
 10
1313.135859
 20
3223.183300
 42
0.033751
  0
VERTEX
  8
0
 10
1308.218033
 20
3223.733199
 42
0.016647
  0
VERTEX
  8
0
 10
1305.217892
 20
3223.764962
 42
0.022009
  0
VERTEX
  8
0
 10
1302.491338
 20
3223.582790
 42
0.024685
  0
VERTEX
  8
0
 10
1300.184333
 20
3223.210284
 42
0.055164
  0
SEQEND
  0
POLYLINE
  8
0
 66
1
 70
1
  0
VERTEX
  8
0
 10
1311.277334
 20
3220.939872
 42
-0.064116
  0
VERTEX
  8
0
 10
1314.748053
 20
3219.476834
 42
-0.044105
  0
VERTEX
  8
0
 10
1318.239086
 20
3217.010052
 42
-0.044620
  0
VERTEX
  8
0
 10
1321.183978
 20
3214.023152
 42
-0.074245
  0
VERTEX
  8
0
 10
1323.000185
 20
3210.999554
 42
-0.082500
  0
VERTEX
  8
0
 10
1323.924964
 20
3207.015321
 42
-0.048541
  0
VERTEX
  8
0
 10
1323.760465
 20
3202.115980
 42
-0.048519
  0
VERTEX
  8
0
 10
1322.653761
 20
3197.336261
 42
-0.081960
  0
VERTEX
  8
0
 10
1320.730156
 20
3193.712863
 42
-0.131601
  0
VERTEX
  8
0
 10
1314.048810
 20
3188.554213
 42
-0.119045
  0
VERTEX
  8
0
 10
1305.414772
 20
3187.171300
 42
-0.120024
  0
VERTEX
  8
0
 10
1297.155968
 20
3189.881241
 42
-0.135211
  0
VERTEX
  8
0
 10
1291.498949
 20
3196.002033
 42
-0.081561
  0
VERTEX
  8
0
 10
1290.415611
 20
3199.332473
 42
-0.036461
  0
VERTEX
  8
0
 10
1290.051606
 20
3203.940079
 42
-0.036432
  0
VERTEX
  8
0
 10
1290.359188
 20
3208.531915
 42
-0.085215
  0
VERTEX
  8
0
 10
1291.404986
 20
3211.799660
 42
-0.050813
  0
VERTEX
  8
0
 10
1293.232846
 20
3214.581715
 42
-0.045489
  0
VERTEX
  8
0
 10
1295.647228
 20
3217.053029
 42
-0.044838
  0
VERTEX
  8
0
 10
1298.506693
 20
3219.079436
 42
-0.046134
  0
VERTEX
  8
0
 10
1301.655189
 20
3220.541351
 42
-0.011738
  0
VERTEX
  8
0
 10
1304.749172
 20
3221.563311
 42
-0.063625
  0
VERTEX
  8
0
 10
1306.488418
 20
3221.859128
 42
-0.065371
  0
VERTEX
  8
0
 10
1308.225693
 20
3221.703816
 42
-0.012790
  0
SEQEND
  0
POLYLINE
  8
0
 66
1
 70
1
  0
VERTEX
  8
0
 10
59.929349
 20
2579.691919
 42
0.077519
  0
VERTEX
  8
0
 10
49.514981
 20
2574.913817
 42
0.093041
  0
VERTEX
  8
0
 10
41.789931
 20
2567.416721
 42
0.092589
  0
VERTEX
  8
0
 10
37.284278
 20
2557.596870
 42
0.075983
  0
VERTEX
  8
0
 10
36.201029
 20
2546.088318
 42
0.061757
  0
VERTEX
  8
0
 10
37.792913
 20
2537.398545
 42
0.074266
  0
VERTEX
  8
0
 10
41.423586
 20
2529.935892
 42
0.072980
  0
VERTEX
  8
0
 10
47.137265
 20
2523.762709
 42
0.057022
  0
VERTEX
  8
0
 10
54.863875
 20
2518.870868
 42
0.031623
  0
VERTEX
  8
0
 10
57.547121
 20
2517.776465
 42
0.036228
  0
VERTEX
  8
0
 10
60.228827
 20
2517.087090
 42
0.029781
  0
VERTEX
  8
0
 10
63.385022
 20
2516.707646
 42
0.013042
  0
VERTEX
  8
0
 10
67.597963
 20
2516.564269
 42
0.013013
  0
VERTEX
  8
0
 10
72.418867
 20
2516.651485
 42
0.045431
  0
VERTEX
  8
0
 10
75.498809
 20
2517.069550
 42
0.046928
  0
VERTEX
  8
0
 10
78.401339
 20
2518.029807
 42
0.014559
  0
VERTEX
  8
0
 10
82.560323
 20
2520.000000
 42
0.164221
  0
VERTEX
  8
0
 10
96.747460
 20
2534.521801
 42
0.163013
  0
VERTEX
  8
0
 10
99.285835
 20
2554.719435
 42
0.162302
  0
VERTEX
  8
0
 10
89.143468
 20
2572.435091
 42
0.162859
  0
VERTEX
  8
0
 10
70.414098
 20
2580.489973
 42
0.022310
  0
VERTEX
  8
0
 10
67.760498
 20
2580.592609
 42
0.017506
  0
VERTEX
  8
0
 10
64.882961
 20
2580.474676
 42
0.017890
  0
VERTEX
  8
0
 10
62.143736
 20
2580.167301
 42
0.031985
  0
SEQEND
  0
POLYLINE
  8
0
 66
1
 70
1
  0
VERTEX
  8
0
 10
82.131761
 20
2575.735325
 42
-0.096270
  0
VERTEX
  8
0
 10
91.516483
 20
2568.305887
 42
-0.098957
  0
VERTEX
  8
0
 10
97.324769
 20
2557.969337
 42
-0.098513
  0
VERTEX
  8
0
 10
98.728797
 20
2546.154648
 42
-0.094506
  0
VERTEX
  8
0
 10
95.549618
 20
2534.511889
 42
-0.119892
  0
VERTEX
  8
0
 10
86.805357
 20
2523.995738
 42
-0.110659
  0
VERTEX
  8
0
 10
73.952354
 20
2518.285675
 42
-0.110725
  0
VERTEX
  8
0
 10
59.898059
 20
2518.607614
 42
-0.120157
  0
VERTEX
  8
0
 10
47.795778
 20
2524.948561
 42
-0.096756
  0
VERTEX
  8
0
 10
40.385128
 20
2534.574415
 42
-0.097488
  0
VERTEX
  8
0
 10
37.167004
 20
2546.255829
 42
-0.097870
  0
VERTEX
  8
0
 10
38.620961
 20
2558.247613
 42
-0.098358
  0
VERTEX
  8
0
 10
44.527423
 20
2568.761004
 42
-0.037095
  0
VERTEX
  8
0
 10
46.316818
 20
2570.562232
 42
-0.018895
  0
VERTEX
  8
0
 10
48.805817
 20
2572.561655
 42
-0.018594
  0
VERTEX
  8
0
 10
51.557470
 20
2574.451378
 42
-0.025302
  0
VERTEX
  8
0
 10
54.179146
 20
2575.931657
 42
-0.018475
  0
VERTEX
  8
0
 10
57.781492
 20
2577.568390
 42
-0.043066
  0
VERTEX
  8
0
 10
60.606897
 20
2578.453058
 42
-0.040135
  0
VERTEX
  8
0
 10
63.660247
 20
2578.874425
 42
-0.014228
  0
VERTEX
  8
0
 10
68.072350
 20
2579.000000
 42
-0.014097
  0
VERTEX
  8
0
 10
72.561543
 20
2578.873411
 42
-0.042971
  0
VERTEX
  8
0
 10
75.577756
 20
2578.441368
 42
-0.045330
  0
VERTEX
  8
0
 10
78.387979
 20
2577.513953
 42
-0.017082
  0
SEQEND
  0
POLYLINE
  8
0
 66
1
 70
1
  0
VERTEX
  8
0
 10
1695.929349
 20
2579.691919
 42
0.064006
  0
VERTEX
  8
0
 10
1687.009684
 20
2575.886466
 42
0.075504
  0
VERTEX
  8
0
 10
1679.890486
 20
2570.108038
 42
0.076762
  0
VERTEX
  8
0
 10
1674.893184
 20
2562.563665
 42
0.069175
  0
VERTEX
  8
0
 10
1672.179418
 20
2553.590291
 42
0.077500
  0
VERTEX
  8
0
 10
1672.170478
 20
2543.171367
 42
0.080709
  0
VERTEX
  8
0
 10
1675.353190
 20
2533.400648
 42
0.081342
  0
VERTEX
  8
0
 10
1681.436667
 20
2525.200754
 42
0.080470
  0
VERTEX
  8
0
 10
1689.838636
 20
2519.333683
 42
0.060419
  0
VERTEX
  8
0
 10
1696.274575
 20
2517.141442
 42
0.049981
  0
VERTEX
  8
0
 10
1703.480590
 20
2516.362133
 42
0.050109
  0
VERTEX
  8
0
 10
1710.677610
 20
2517.028206
 42
0.061599
  0
VERTEX
  8
0
 10
1717.086482
 20
2519.119815
 42
0.040270
  0
VERTEX
  8
0
 10
1721.891924
 20
2521.864869
 42
0.042519
  0
VERTEX
  8
0
 10
1726.102123
 20
2525.300854
 42
0.041990
  0
VERTEX
  8
0
 10
1729.714572
 20
2529.441373
 42
0.037446
  0
VERTEX
  8
0
 10
1732.740884
 20
2534.283425
 42
0.024822
  0
VERTEX
  8
0
 10
1734.217987
 20
2537.469519
 42
0.048547
  0
VERTEX
  8
0
 10
1735.010549
 20
2540.150245
 42
0.037732
  0
VERTEX
  8
0
 10
1735.379515
 20
2543.344018
 42
0.009897
  0
VERTEX
  8
0
 10
1735.481585
 20
2548.500000
 42
0.009802
  0
VERTEX
  8
0
 10
1735.381179
 20
2553.621422
 42
0.037098
  0
VERTEX
  8
0
 10
1735.018901
 20
2556.803347
 42
0.048638
  0
VERTEX
  8
0
 10
1734.246704
 20
2559.441724
 42
0.026622
  0
VERTEX
  8
0
 10
1732.824978
 20
2562.500000
 42
0.043291
  0
VERTEX
  8
0
 10
1729.784117
 20
2567.193198
 42
0.035169
  0
VERTEX
  8
0
 10
1725.777687
 20
2571.654273
 42
0.035848
  0
VERTEX
  8
0
 10
1721.298140
 20
2575.404917
 42
0.052573
  0
VERTEX
  8
0
 10
1716.843131
 20
2577.957755
 42
0.048075
  0
VERTEX
  8
0
 10
1711.973736
 20
2579.567233
 42
0.035119
  0
VERTEX
  8
0
 10
1706.340253
 20
2580.435594
 42
0.035467
  0
VERTEX
  8
0
 10
1700.727513
 20
2580.501972
 42
0.054137
  0
SEQEND
  0
POLYLINE
  8
0
 66
1
 70
1
  0
VERTEX
  8
0
 10
1716.602172
 20
2576.604725
 42
-0.043696
  0
VERTEX
  8
0
 10
1721.142285
 20
2573.986425
 42
-0.041989
  0
VERTEX
  8
0
 10
1725.223913
 20
2570.587548
 42
-0.040993
  0
VERTEX
  8
0
 10
1728.766476
 20
2566.470581
 42
-0.037663
  0
VERTEX
  8
0
 10
1731.702914
 20
2561.716575
 42
-0.024264
  0
VERTEX
  8
0
 10
1733.117609
 20
2558.627887
 42
-0.045033
  0
VERTEX
  8
0
 10
1733.907835
 20
2555.989249
 42
-0.037941
  0
VERTEX
  8
0
 10
1734.288266
 20
2552.964868
 42
-0.012640
  0
VERTEX
  8
0
 10
1734.395476
 20
2548.500000
 42
-0.059162
  0
VERTEX
  8
0
 10
1733.314816
 20
2539.496717
 42
-0.079166
  0
VERTEX
  8
0
 10
1730.149229
 20
2531.917617
 42
-0.079599
  0
VERTEX
  8
0
 10
1724.801308
 20
2525.727262
 42
-0.060561
  0
VERTEX
  8
0
 10
1717.285067
 20
2520.819574
 42
-0.015745
  0
VERTEX
  8
0
 10
1713.444565
 20
2519.076893
 42
-0.041238
  0
VERTEX
  8
0
 10
1710.564667
 20
2518.147830
 42
-0.042348
  0
VERTEX
  8
0
 10
1707.615758
 20
2517.717255
 42
-0.017381
  0
VERTEX
  8
0
 10
1703.570664
 20
2517.613746
 42
-0.065001
  0
VERTEX
  8
0
 10
1695.127034
 20
2518.794971
 42
-0.070615
  0
VERTEX
  8
0
 10
1687.523469
 20
2522.097989
 42
-0.070352
  0
VERTEX
  8
0
 10
1681.116904
 20
2527.399349
 42
-0.063800
  0
VERTEX
  8
0
 10
1676.181524
 20
2534.436545
 42
-0.026211
  0
VERTEX
  8
0
 10
1674.757429
 20
2537.527190
 42
-0.048057
  0
VERTEX
  8
0
 10
1673.982943
 20
2540.187180
 42
-0.036904
  0
VERTEX
  8
0
 10
1673.618652
 20
2543.382619
 42
-0.009879
  0
VERTEX
  8
0
 10
1673.516379
 20
2548.500000
 42
-0.009806
  0
VERTEX
  8
0
 10
1673.611085
 20
2553.385107
 42
-0.032345
  0
VERTEX
  8
0
 10
1673.944247
 20
2556.587519
 42
-0.044500
  0
VERTEX
  8
0
 10
1674.614188
 20
2559.133852
 42
-0.035819
  0
VERTEX
  8
0
 10
1675.763310
 20
2561.722196
 42
-0.033244
  0
VERTEX
  8
0
 10
1678.625387
 20
2566.329238
 42
-0.042773
  0
VERTEX
  8
0
 10
1681.865738
 20
2570.115610
 42
-0.043270
  0
VERTEX
  8
0
 10
1685.670710
 20
2573.262188
 42
-0.035282
  0
VERTEX
  8
0
 10
1690.222196
 20
2575.953169
 42
-0.057453
  0
VERTEX
  8
0
 10
1696.582253
 20
2578.264923
 42
-0.052338
  0
VERTEX
  8
0
 10
1703.507055
 20
2579.165139
 42
-0.052962
  0
VERTEX
  8
0
 10
1710.383957
 20
2578.605974
 42
-0.062285
  0
SEQEND
  0
POLYLINE
  8
0
 66
1
 70
1
  0
VERTEX
  8
0
 10
1421.000000
 20
2537.825051
 42
0.131088
  0
VERTEX
  8
0
 10
1412.256213
 20
2532.612793
 42
0.130859
  0
VERTEX
  8
0
 10
1407.263204
 20
2523.734771
 42
0.129317
  0
VERTEX
  8
0
 10
1407.315904
 20
2513.464529
 42
0.126556
  0
VERTEX
  8
0
 10
1412.405036
 20
2504.453527
 42
0.116587
  0
VERTEX
  8
0
 10
1420.403549
 20
2499.295246
 42
0.122448
  0
VERTEX
  8
0
 10
1429.715239
 20
2498.389394
 42
0.123076
  0
VERTEX
  8
0
 10
1438.331096
 20
2501.947373
 42
0.118537
  0
VERTEX
  8
0
 10
1444.403326
 20
2509.181844
 42
0.073522
  0
VERTEX
  8
0
 10
1446.572057
 20
2515.825659
 42
0.089956
  0
VERTEX
  8
0
 10
1446.502349
 20
2522.349028
 42
0.090394
  0
VERTEX
  8
0
 10
1444.149356
 20
2528.408173
 42
0.075029
  0
VERTEX
  8
0
 10
1439.684314
 20
2533.704026
 42
0.055880
  0
VERTEX
  8
0
 10
1435.446295
 20
2536.659054
 42
0.070155
  0
VERTEX
  8
0
 10
1430.964478
 20
2538.331531
 42
0.069638
  0
VERTEX
  8
0
 10
1426.168177
 20
2538.706569
 42
0.054015
  0
SEQEND
  0
POLYLINE
  8
0
 66
1
 70
1
  0
VERTEX
  8
0
 10
1433.500000
 20
2534.109957
 42
-0.113840
  0
VERTEX
  8
0
 10
1440.386566
 20
2528.775138
 42
-0.129325
  0
VERTEX
  8
0
 10
1443.842291
 20
2521.195488
 42
-0.130814
  0
VERTEX
  8
0
 10
1443.102753
 20
2512.964185
 42
-0.117848
  0
VERTEX
  8
0
 10
1438.373161
 20
2505.813618
 42
-0.127667
  0
VERTEX
  8
0
 10
1430.570607
 20
2501.572783
 42
-0.133584
  0
VERTEX
  8
0
 10
1421.833090
 20
2501.762450
 42
-0.132320
  0
VERTEX
  8
0
 10
1414.335152
 20
2506.363716
 42
-0.124193
  0
VERTEX
  8
0
 10
1409.942315
 20
2514.214226
 42
-0.093247
  0
VERTEX
  8
0
 10
1409.496341
 20
2519.988824
 42
-0.083307
  0
VERTEX
  8
0
 10
1411.131585
 20
2525.782110
 42
-0.083265
  0
VERTEX
  8
0
 10
1414.569110
 20
2530.726896
 42
-0.093011
  0
VERTEX
  8
0
 10
1419.316140
 20
2534.056542
 42
-0.040988
  0
VERTEX
  8
0
 10
1423.078602
 20
2535.405513
 42
-0.064730
  0
VERTEX
  8
0
 10
1426.471855
 20
2535.859656
 42
-0.065649
  0
VERTEX
  8
0
 10
1429.834013
 20
2535.429178
 42
-0.043514
  0
SEQEND
  0
POLYLINE
  8
0
 66
1
 70
1
  0
VERTEX
  8
0
 10
341.907284
 20
2534.673227
 42
0.136259
  0
VERTEX
  8
0
 10
333.952461
 20
2527.163894
 42
0.139424
  0
VERTEX
  8
0
 10
331.097192
 20
2516.695927
 42
0.138891
  0
VERTEX
  8
0
 10
334.174533
 20
2506.261568
 42
0.134870
  0
VERTEX
  8
0
 10
342.293385
 20
2498.850326
 42
0.079213
  0
VERTEX
  8
0
 10
346.906518
 20
2497.354034
 42
0.052714
  0
VERTEX
  8
0
 10
352.469835
 20
2497.074401
 42
0.052987
  0
VERTEX
  8
0
 10
357.927879
 20
2497.960725
 42
0.083663
  0
VERTEX
  8
0
 10
362.221592
 20
2499.949666
 42
0.048099
  0
VERTEX
  8
0
 10
366.226578
 20
2503.301540
 42
0.082119
  0
VERTEX
  8
0
 10
368.733065
 20
2506.857791
 42
0.076255
  0
VERTEX
  8
0
 10
370.072209
 20
2511.219901
 42
0.036428
  0
VERTEX
  8
0
 10
370.500000
 20
2517.083910
 42
0.010297
  0
VERTEX
  8
0
 10
370.404762
 20
2521.708038
 42
0.054338
  0
VERTEX
  8
0
 10
370.026831
 20
2524.212813
 42
0.074333
  0
VERTEX
  8
0
 10
369.168014
 20
2526.206668
 42
0.029269
  0
VERTEX
  8
0
 10
367.442034
 20
2528.657179
 42
0.080394
  0
VERTEX
  8
0
 10
362.033271
 20
2533.578067
 42
0.086811
  0
VERTEX
  8
0
 10
355.485186
 20
2536.381905
 42
0.089135
  0
VERTEX
  8
0
 10
348.521446
 20
2536.755395
 42
0.090629
  0
SEQEND
  0
POLYLINE
  8
0
 66
1
 70
1
  0
VERTEX
  8
0
 10
358.328810
 20
2532.635974
 42
-0.070508
  0
VERTEX
  8
0
 10
361.405378
 20
2530.806134
 42
-0.050367
  0
VERTEX
  8
0
 10
364.262987
 20
2527.990521
 42
-0.049199
  0
VERTEX
  8
0
 10
366.569748
 20
2524.573704
 42
-0.058186
  0
VERTEX
  8
0
 10
368.012243
 20
2520.954531
 42
-0.070665
  0
VERTEX
  8
0
 10
368.526594
 20
2516.757320
 42
-0.069225
  0
VERTEX
  8
0
 10
367.859172
 20
2512.551732
 42
-0.066247
  0
VERTEX
  8
0
 10
366.025693
 20
2508.531846
 42
-0.056354
  0
VERTEX
  8
0
 10
363.117647
 20
2504.882353
 42
-0.142416
  0
VERTEX
  8
0
 10
354.168484
 20
2499.964671
 42
-0.156373
  0
VERTEX
  8
0
 10
344.335545
 20
2500.858896
 42
-0.155310
  0
VERTEX
  8
0
 10
336.808554
 20
2507.316575
 42
-0.140258
  0
VERTEX
  8
0
 10
334.016450
 20
2517.217881
 42
-0.129443
  0
VERTEX
  8
0
 10
336.137891
 20
2525.151161
 42
-0.122325
  0
VERTEX
  8
0
 10
341.922322
 20
2531.210492
 42
-0.119963
  0
VERTEX
  8
0
 10
349.969549
 20
2533.934359
 42
-0.121435
  0
SEQEND
  0
POLYLINE
  8
0
 66
1
 70
1
  0
VERTEX
  8
0
 10
59.929349
 20
2325.691919
 42
0.057431
  0
VERTEX
  8
0
 10
52.373995
 20
2322.584897
 42
0.060931
  0
VERTEX
  8
0
 10
45.887397
 20
2317.889119
 42
0.062051
  0
VERTEX
  8
0
 10
40.819584
 20
2311.854584
 42
0.063565
  0
VERTEX
  8
0
 10
37.436361
 20
2304.808401
 42
0.057960
  0
VERTEX
  8
0
 10
36.156400
 20
2298.649045
 42
0.042541
  0
VERTEX
  8
0
 10
36.127975
 20
2291.666393
 42
0.042799
  0
VERTEX
  8
0
 10
37.275663
 20
2284.837387
 42
0.061673
  0
VERTEX
  8
0
 10
39.518776
 20
2279.142836
 42
0.118082
  0
VERTEX
  8
0
 10
49.409187
 20
2268.168793
 42
0.115092
  0
VERTEX
  8
0
 10
63.290146
 20
2262.736338
 42
0.115134
  0
VERTEX
  8
0
 10
78.138008
 20
2264.007403
 42
0.118232
  0
VERTEX
  8
0
 10
90.725050
 20
2271.725050
 42
0.041710
  0
VERTEX
  8
0
 10
94.909795
 20
2276.672961
 42
0.062806
  0
VERTEX
  8
0
 10
97.581073
 20
2281.642626
 42
0.059272
  0
VERTEX
  8
0
 10
99.030029
 20
2287.332476
 42
0.032750
  0
VERTEX
  8
0
 10
99.500000
 20
2294.500000
 42
0.010295
  0
VERTEX
  8
0
 10
99.398082
 20
2299.449458
 42
0.032792
  0
VERTEX
  8
0
 10
99.045949
 20
2302.735958
 42
0.042541
  0
VERTEX
  8
0
 10
98.328722
 20
2305.461376
 42
0.028759
  0
VERTEX
  8
0
 10
97.077089
 20
2308.422911
 42
0.088730
  0
VERTEX
  8
0
 10
90.580149
 20
2317.252508
 42
0.081250
  0
VERTEX
  8
0
 10
81.239046
 20
2323.606106
 42
0.082444
  0
VERTEX
  8
0
 10
70.490985
 20
2326.588091
 42
0.095675
  0
SEQEND
  0
POLYLINE
  8
0
 66
1
 70
1
  0
VERTEX
  8
0
 10
81.714402
 20
2321.870459
 42
-0.142554
  0
VERTEX
  8
0
 10
94.235540
 20
2310.714253
 42
-0.141728
  0
VERTEX
  8
0
 10
98.850653
 20
2294.555356
 42
-0.140332
  0
VERTEX
  8
0
 10
94.139202
 20
2278.306837
 42
-0.138950
  0
VERTEX
  8
0
 10
81.528788
 20
2266.939557
 42
-0.120460
  0
VERTEX
  8
0
 10
66.747971
 20
2263.669924
 42
-0.126012
  0
VERTEX
  8
0
 10
52.398205
 20
2267.684086
 42
-0.126237
  0
VERTEX
  8
0
 10
41.762231
 20
2278.093056
 42
-0.121134
  0
VERTEX
  8
0
 10
37.243292
 20
2292.500000
 42
-0.066629
  0
VERTEX
  8
0
 10
37.865640
 20
2301.349407
 42
-0.073822
  0
VERTEX
  8
0
 10
40.808899
 20
2309.396276
 42
-0.074438
  0
VERTEX
  8
0
 10
45.936271
 20
2316.188407
 42
-0.069394
  0
VERTEX
  8
0
 10
52.942256
 20
2321.372055
 42
-0.054062
  0
VERTEX
  8
0
 10
60.024360
 20
2324.286610
 42
-0.066366
  0
VERTEX
  8
0
 10
67.090002
 20
2325.353448
 42
-0.065347
  0
VERTEX
  8
0
 10
74.275699
 20
2324.536630
 42
-0.050272
  0
SEQEND
  0
POLYLINE
  8
0
 66
1
 70
1
  0
VERTEX
  8
0
 10
1695.929349
 20
2325.691919
 42
0.072919
  0
VERTEX
  8
0
 10
1685.897991
 20
2321.200187
 42
0.087102
  0
VERTEX
  8
0
 10
1678.261060
 20
2314.222188
 42
0.087863
  0
VERTEX
  8
0
 10
1673.502801
 20
2305.113865
 42
0.075698
  0
VERTEX
  8
0
 10
1671.833282
 20
2294.431266
 42
0.014984
  0
VERTEX
  8
0
 10
1671.946216
 20
2290.095806
 42
0.040796
  0
VERTEX
  8
0
 10
1672.366920
 20
2287.056673
 42
0.042376
  0
VERTEX
  8
0
 10
1673.265117
 20
2284.191681
 42
0.017243
  0
VERTEX
  8
0
 10
1674.943755
 20
2280.462685
 42
0.040409
  0
VERTEX
  8
0
 10
1677.864268
 20
2275.571044
 42
0.044229
  0
VERTEX
  8
0
 10
1681.456188
 20
2271.370190
 42
0.043646
  0
VERTEX
  8
0
 10
1685.775935
 20
2267.821306
 42
0.037521
  0
VERTEX
  8
0
 10
1690.863875
 20
2264.870868
 42
0.069461
  0
VERTEX
  8
0
 10
1696.717250
 20
2262.984279
 42
0.045679
  0
VERTEX
  8
0
 10
1703.782712
 20
2262.405022
 42
0.045201
  0
VERTEX
  8
0
 10
1710.942068
 20
2263.122149
 42
0.062163
  0
VERTEX
  8
0
 10
1717.086482
 20
2265.119815
 42
0.040270
  0
VERTEX
  8
0
 10
1721.891924
 20
2267.864869
 42
0.042519
  0
VERTEX
  8
0
 10
1726.102123
 20
2271.300854
 42
0.041990
  0
VERTEX
  8
0
 10
1729.714572
 20
2275.441373
 42
0.037446
  0
VERTEX
  8
0
 10
1732.740884
 20
2280.283425
 42
0.024822
  0
VERTEX
  8
0
 10
1734.217987
 20
2283.469519
 42
0.048547
  0
VERTEX
  8
0
 10
1735.010549
 20
2286.150245
 42
0.037732
  0
VERTEX
  8
0
 10
1735.379515
 20
2289.344018
 42
0.009897
  0
VERTEX
  8
0
 10
1735.481585
 20
2294.500000
 42
0.009839
  0
VERTEX
  8
0
 10
1735.381022
 20
2299.610138
 42
0.036794
  0
VERTEX
  8
0
 10
1735.019330
 20
2302.799927
 42
0.048192
  0
VERTEX
  8
0
 10
1734.250628
 20
2305.445511
 42
0.026731
  0
VERTEX
  8
0
 10
1732.840403
 20
2308.500000
 42
0.080732
  0
VERTEX
  8
0
 10
1726.080076
 20
2317.446601
 42
0.081857
  0
VERTEX
  8
0
 10
1716.863879
 20
2323.741424
 42
0.084415
  0
VERTEX
  8
0
 10
1706.375099
 20
2326.615584
 42
0.093886
  0
SEQEND
  0
POLYLINE
  8
0
 66
1
 70
1
  0
VERTEX
  8
0
 10
1715.829501
 20
2322.902497
 42
-0.039088
  0
VERTEX
  8
0
 10
1720.603840
 20
2320.392738
 42
-0.046277
  0
VERTEX
  8
0
 10
1724.646928
 20
2317.289712
 42
-0.045746
  0
VERTEX
  8
0
 10
1728.086678
 20
2313.463648
 42
-0.036798
  0
VERTEX
  8
0
 10
1731.060958
 20
2308.795544
 42
-0.016491
  0
VERTEX
  8
0
 10
1732.955508
 20
2304.978806
 42
-0.049332
  0
VERTEX
  8
0
 10
1733.896400
 20
2302.224543
 42
-0.045869
  0
VERTEX
  8
0
 10
1734.314837
 20
2299.231987
 42
-0.012810
  0
VERTEX
  8
0
 10
1734.417212
 20
2294.500000
 42
-0.058902
  0
VERTEX
  8
0
 10
1733.321678
 20
2285.539315
 42
-0.077839
  0
VERTEX
  8
0
 10
1730.163904
 20
2277.958487
 42
-0.078828
  0
VERTEX
  8
0
 10
1724.877502
 20
2271.775492
 42
-0.062234
  0
VERTEX
  8
0
 10
1717.512912
 20
2266.931741
 42
-0.095484
  0
VERTEX
  8
0
 10
1705.921800
 20
2263.760249
 42
-0.098164
  0
VERTEX
  8
0
 10
1694.102757
 20
2265.173558
 42
-0.098158
  0
VERTEX
  8
0
 10
1683.716151
 20
2270.988923
 42
-0.095460
  0
VERTEX
  8
0
 10
1676.211875
 20
2280.376651
 42
-0.025660
  0
VERTEX
  8
0
 10
1674.767194
 20
2283.504348
 42
-0.048240
  0
VERTEX
  8
0
 10
1673.985453
 20
2286.172708
 42
-0.037220
  0
VERTEX
  8
0
 10
1673.619043
 20
2289.367782
 42
-0.009888
  0
VERTEX
  8
0
 10
1673.516379
 20
2294.500000
 42
-0.009806
  0
VERTEX
  8
0
 10
1673.611085
 20
2299.385107
 42
-0.032345
  0
VERTEX
  8
0
 10
1673.944247
 20
2302.587519
 42
-0.044500
  0
VERTEX
  8
0
 10
1674.614188
 20
2305.133852
 42
-0.035819
  0
VERTEX
  8
0
 10
1675.763310
 20
2307.722196
 42
-0.085954
  0
VERTEX
  8
0
 10
1683.201848
 20
2317.288556
 42
-0.094335
  0
VERTEX
  8
0
 10
1693.206905
 20
2323.426581
 42
-0.096793
  0
VERTEX
  8
0
 10
1704.548374
 20
2325.363898
 42
-0.095802
  0
SEQEND
  0
POLYLINE
  8
0
 66
1
 70
1
  0
VERTEX
  8
0
 10
405.398882
 20
1911.093586
 42
0.049994
  0
VERTEX
  8
0
 10
401.646206
 20
1908.913951
 42
0.037190
  0
VERTEX
  8
0
 10
397.980906
 20
1905.823888
 42
0.036946
  0
VERTEX
  8
0
 10
394.785039
 20
1902.195782
 42
0.046961
  0
VERTEX
  8
0
 10
392.436736
 20
1898.403402
 42
0.078795
  0
VERTEX
  8
0
 10
390.940504
 20
1893.622609
 42
0.036022
  0
VERTEX
  8
0
 10
390.455491
 20
1887.083233
 42
0.035971
  0
VERTEX
  8
0
 10
390.909848
 20
1880.592891
 42
0.085333
  0
VERTEX
  8
0
 10
392.391489
 20
1876.000000
 42
0.059114
  0
VERTEX
  8
0
 10
396.423268
 20
1870.111799
 42
0.067083
  0
VERTEX
  8
0
 10
401.571319
 20
1865.611688
 42
0.067091
  0
VERTEX
  8
0
 10
407.726503
 20
1862.635390
 42
0.059148
  0
VERTEX
  8
0
 10
414.721229
 20
1861.230179
 42
0.018874
  0
VERTEX
  8
0
 10
418.429442
 20
1861.073024
 42
0.052567
  0
VERTEX
  8
0
 10
421.018910
 20
1861.333953
 42
0.048651
  0
VERTEX
  8
0
 10
423.607119
 20
1862.142212
 42
0.014389
  0
VERTEX
  8
0
 10
427.387121
 20
1863.869815
 42
0.058139
  0
VERTEX
  8
0
 10
433.888738
 20
1868.070376
 42
0.082576
  0
VERTEX
  8
0
 10
438.398839
 20
1873.251604
 42
0.081414
  0
VERTEX
  8
0
 10
441.030552
 20
1879.671989
 42
0.054878
  0
VERTEX
  8
0
 10
441.956107
 20
1887.553656
 42
0.070947
  0
VERTEX
  8
0
 10
440.957275
 20
1894.940275
 42
0.076189
  0
VERTEX
  8
0
 10
437.936531
 20
1901.559163
 42
0.075032
  0
VERTEX
  8
0
 10
433.024057
 20
1907.048275
 42
0.065916
  0
VERTEX
  8
0
 10
426.500000
 20
1911.132659
 42
0.068920
  0
VERTEX
  8
0
 10
421.858223
 20
1912.518272
 42
0.038598
  0
VERTEX
  8
0
 10
415.973628
 20
1912.962262
 42
0.038567
  0
VERTEX
  8
0
 10
410.077939
 20
1912.495837
 42
0.067665
  0
SEQEND
  0
POLYLINE
  8
0
 66
1
 70
1
  0
VERTEX
  8
0
 10
425.500000
 20
1908.517607
 42
-0.078463
  0
VERTEX
  8
0
 10
431.121508
 20
1905.138123
 42
-0.076768
  0
VERTEX
  8
0
 10
435.477139
 20
1900.168756
 42
-0.074679
  0
VERTEX
  8
0
 10
438.218104
 20
1893.987180
 42
-0.068371
  0
VERTEX
  8
0
 10
439.133397
 20
1887.080073
 42
-0.045669
  0
VERTEX
  8
0
 10
438.646497
 20
1882.026797
 42
-0.060819
  0
VERTEX
  8
0
 10
437.245720
 20
1877.635996
 42
-0.059674
  0
VERTEX
  8
0
 10
434.804157
 20
1873.649350
 42
-0.041865
  0
VERTEX
  8
0
 10
431.203125
 20
1869.802476
 42
-0.044859
  0
VERTEX
  8
0
 10
427.296143
 20
1866.862742
 42
-0.062702
  0
VERTEX
  8
0
 10
423.327593
 20
1865.041920
 42
-0.060519
  0
VERTEX
  8
0
 10
418.923814
 20
1864.222226
 42
-0.038411
  0
VERTEX
  8
0
 10
413.699620
 20
1864.293521
 42
-0.086885
  0
VERTEX
  8
0
 10
406.031720
 20
1866.364290
 42
-0.088686
  0
VERTEX
  8
0
 10
399.585278
 20
1870.908407
 42
-0.089017
  0
VERTEX
  8
0
 10
395.130229
 20
1877.388121
 42
-0.088364
  0
VERTEX
  8
0
 10
393.191499
 20
1885.029309
 42
-0.122656
  0
VERTEX
  8
0
 10
395.251111
 20
1896.893628
 42
-0.132315
  0
VERTEX
  8
0
 10
402.614944
 20
1906.017037
 42
-0.132240
  0
VERTEX
  8
0
 10
413.568515
 20
1910.210974
 42
-0.122453
  0
SEQEND
  0
POLYLINE
  8
0
 66
1
 70
1
  0
VERTEX
  8
0
 10
1399.215065
 20
1911.743232
 42
0.074815
  0
VERTEX
  8
0
 10
1395.583594
 20
1909.946537
 42
0.031521
  0
VERTEX
  8
0
 10
1391.310825
 20
1906.548758
 42
0.031580
  0
VERTEX
  8
0
 10
1387.410332
 20
1902.548869
 42
0.059554
  0
VERTEX
  8
0
 10
1384.902978
 20
1898.809821
 42
0.125895
  0
VERTEX
  8
0
 10
1382.217549
 20
1886.872192
 42
0.118401
  0
VERTEX
  8
0
 10
1385.490829
 20
1874.806163
 42
0.118123
  0
VERTEX
  8
0
 10
1393.896098
 20
1865.522226
 42
0.124900
  0
VERTEX
  8
0
 10
1405.426898
 20
1861.295389
 42
0.101727
  0
VERTEX
  8
0
 10
1416.291592
 20
1862.384524
 42
0.106259
  0
VERTEX
  8
0
 10
1425.655555
 20
1867.676451
 42
0.107104
  0
VERTEX
  8
0
 10
1431.965809
 20
1876.307736
 42
0.104856
  0
VERTEX
  8
0
 10
1434.200000
 20
1886.844257
 42
0.092426
  0
VERTEX
  8
0
 10
1432.284657
 20
1897.117284
 42
0.102885
  0
VERTEX
  8
0
 10
1426.818489
 20
1905.576143
 42
0.104467
  0
VERTEX
  8
0
 10
1418.511184
 20
1911.064846
 42
0.098081
  0
VERTEX
  8
0
 10
1408.500000
 20
1912.888143
 42
0.014465
  0
VERTEX
  8
0
 10
1405.961972
 20
1912.775602
 42
0.012363
  0
VERTEX
  8
0
 10
1403.297550
 20
1912.513744
 42
0.012538
  0
VERTEX
  8
0
 10
1400.886507
 20
1912.154861
 42
0.034327
  0
SEQEND
  0
POLYLINE
  8
0
 66
1
 70
1
  0
VERTEX
  8
0
 10
1420.714713
 20
1906.867300
 42
-0.084300
  0
VERTEX
  8
0
 10
1425.897054
 20
1902.305725
 42
-0.070627
  0
VERTEX
  8
0
 10
1429.665807
 20
1896.015622
 42
-0.071421
  0
VERTEX
  8
0
 10
1431.503779
 20
1888.998726
 42
-0.090308
  0
VERTEX
  8
0
 10
1431.058558
 20
1882.318273
 42
-0.096723
  0
VERTEX
  8
0
 10
1426.876513
 20
1873.424005
 42
-0.105484
  0
VERTEX
  8
0
 10
1419.757349
 20
1867.075490
 42
-0.105656
  0
VERTEX
  8
0
 10
1410.677171
 20
1864.191692
 42
-0.097327
  0
VERTEX
  8
0
 10
1400.922284
 20
1865.141430
 42
-0.107691
  0
VERTEX
  8
0
 10
1393.448936
 20
1869.279161
 42
-0.093857
  0
VERTEX
  8
0
 10
1387.932759
 20
1876.336693
 42
-0.091487
  0
VERTEX
  8
0
 10
1385.283832
 20
1885.092196
 42
-0.095864
  0
VERTEX
  8
0
 10
1386.001597
 20
1894.065352
 42
-0.072641
  0
VERTEX
  8
0
 10
1387.543962
 20
1897.556647
 42
-0.032384
  0
VERTEX
  8
0
 10
1390.495410
 20
1901.640852
 42
-0.032411
  0
VERTEX
  8
0
 10
1393.970160
 20
1905.331255
 42
-0.068466
  0
VERTEX
  8
0
 10
1397.176769
 20
1907.591411
 42
-0.069065
  0
VERTEX
  8
0
 10
1402.811325
 20
1909.580365
 42
-0.058110
  0
VERTEX
  8
0
 10
1409.123017
 20
1910.120292
 42
-0.058504
  0
VERTEX
  8
0
 10
1415.344986
 20
1909.195019
 42
-0.072394
  0
SEQEND
  0
POLYLINE
  8
0
 66
1
 70
1
  0
VERTEX
  8
0
 10
410.331982
 20
1771.088190
 42
0.137314
  0
VERTEX
  8
0
 10
397.783021
 20
1763.888387
 42
0.138645
  0
VERTEX
  8
0
 10
390.852164
 20
1751.245363
 42
0.139258
  0
VERTEX
  8
0
 10
391.582279
 20
1736.888998
 42
0.138937
  0
VERTEX
  8
0
 10
399.749009
 20
1725.044897
 42
0.052469
  0
VERTEX
  8
0
 10
403.133068
 20
1722.797703
 42
0.031319
  0
VERTEX
  8
0
 10
407.552509
 20
1720.830826
 42
0.031427
  0
VERTEX
  8
0
 10
412.133118
 20
1719.447538
 42
0.057676
  0
VERTEX
  8
0
 10
416.000000
 20
1719.000000
 42
0.080321
  0
VERTEX
  8
0
 10
422.965567
 20
1720.126227
 42
0.064995
  0
VERTEX
  8
0
 10
429.791754
 20
1723.427046
 42
0.064239
  0
VERTEX
  8
0
 10
435.616536
 20
1728.418568
 42
0.074477
  0
VERTEX
  8
0
 10
439.647151
 20
1734.500000
 42
0.104146
  0
VERTEX
  8
0
 10
441.971845
 20
1744.469824
 42
0.095402
  0
VERTEX
  8
0
 10
440.200321
 20
1754.871583
 42
0.096284
  0
VERTEX
  8
0
 10
434.718181
 20
1763.795243
 42
0.108459
  0
VERTEX
  8
0
 10
426.490566
 20
1769.568389
 42
0.048680
  0
VERTEX
  8
0
 10
422.878193
 20
1770.679872
 42
0.026864
  0
VERTEX
  8
0
 10
418.304751
 20
1771.359368
 42
0.026867
  0
VERTEX
  8
0
 10
413.773568
 20
1771.540978
 42
0.058642
  0
SEQEND
  0
POLYLINE
  8
0
 66
1
 70
1
  0
VERTEX
  8
0
 10
426.805817
 20
1766.099065
 42
-0.070132
  0
VERTEX
  8
0
 10
431.926510
 20
1762.506539
 42
-0.070400
  0
VERTEX
  8
0
 10
435.846957
 20
1757.642710
 42
-0.069428
  0
VERTEX
  8
0
 10
438.304071
 20
1751.818290
 42
-0.065237
  0
VERTEX
  8
0
 10
439.142857
 20
1745.416856
 42
-0.104798
  0
VERTEX
  8
0
 10
437.145904
 20
1735.993820
 42
-0.103473
  0
VERTEX
  8
0
 10
431.494033
 20
1728.141577
 42
-0.104887
  0
VERTEX
  8
0
 10
423.241526
 20
1723.287442
 42
-0.110591
  0
VERTEX
  8
0
 10
413.890687
 20
1722.326541
 42
-0.115806
  0
VERTEX
  8
0
 10
403.289402
 20
1726.177954
 42
-0.123655
  0
VERTEX
  8
0
 10
395.810409
 20
1734.275976
 42
-0.124200
  0
VERTEX
  8
0
 10
393.065236
 20
1744.916591
 42
-0.117449
  0
VERTEX
  8
0
 10
395.603381
 20
1755.831617
 42
-0.098351
  0
VERTEX
  8
0
 10
401.173874
 20
1763.033245
 42
-0.099943
  0
VERTEX
  8
0
 10
409.044329
 20
1767.509562
 42
-0.099896
  0
VERTEX
  8
0
 10
418.038226
 20
1768.582802
 42
-0.098159
  0
SEQEND
  0
POLYLINE
  8
0
 66
1
 70
1
  0
VERTEX
  8
0
 10
1401.803211
 20
1770.638624
 42
0.043434
  0
VERTEX
  8
0
 10
1396.844298
 20
1768.787244
 42
0.050553
  0
VERTEX
  8
0
 10
1392.543379
 20
1766.178940
 42
0.051802
  0
VERTEX
  8
0
 10
1388.938534
 20
1762.822829
 42
0.049713
  0
VERTEX
  8
0
 10
1386.043970
 20
1758.753350
 42
0.090645
  0
VERTEX
  8
0
 10
1382.550589
 20
1748.818321
 42
0.102192
  0
VERTEX
  8
0
 10
1383.018849
 20
1738.723496
 42
0.104015
  0
VERTEX
  8
0
 10
1387.422167
 20
1729.775599
 42
0.097125
  0
VERTEX
  8
0
 10
1395.148929
 20
1723.099781
 42
0.072424
  0
VERTEX
  8
0
 10
1403.041590
 20
1719.999208
 42
0.083694
  0
VERTEX
  8
0
 10
1411.098114
 20
1719.493180
 42
0.084452
  0
VERTEX
  8
0
 10
1418.817434
 20
1721.652651
 42
0.075406
  0
VERTEX
  8
0
 10
1425.731748
 20
1726.300291
 42
0.043297
  0
VERTEX
  8
0
 10
1429.598270
 20
1730.518520
 42
0.061324
  0
VERTEX
  8
0
 10
1432.182747
 20
1734.900439
 42
0.060856
  0
VERTEX
  8
0
 10
1433.639944
 20
1739.804497
 42
0.041842
  0
VERTEX
  8
0
 10
1434.125000
 20
1745.590673
 42
0.044146
  0
VERTEX
  8
0
 10
1433.628163
 20
1751.206907
 42
0.059124
  0
VERTEX
  8
0
 10
1432.144815
 20
1756.095864
 42
0.059709
  0
VERTEX
  8
0
 10
1429.572863
 20
1760.465748
 42
0.046243
  0
VERTEX
  8
0
 10
1425.831133
 20
1764.533596
 42
0.056774
  0
VERTEX
  8
0
 10
1420.366187
 20
1768.445691
 42
0.064852
  0
VERTEX
  8
0
 10
1414.394972
 20
1770.819168
 42
0.066314
  0
VERTEX
  8
0
 10
1408.130867
 20
1771.551499
 42
0.063699
  0
SEQEND
  0
POLYLINE
  8
0
 66
1
 70
1
  0
VERTEX
  8
0
 10
1418.681608
 20
1766.146798
 42
-0.063961
  0
VERTEX
  8
0
 10
1424.055040
 20
1762.449016
 42
-0.072681
  0
VERTEX
  8
0
 10
1428.056161
 20
1757.652239
 42
-0.072915
  0
VERTEX
  8
0
 10
1430.508291
 20
1751.924848
 42
-0.064963
  0
VERTEX
  8
0
 10
1431.343113
 20
1745.500000
 42
-0.162468
  0
VERTEX
  8
0
 10
1426.666925
 20
1731.513464
 42
-0.164393
  0
VERTEX
  8
0
 10
1414.548799
 20
1723.220307
 42
-0.164015
  0
VERTEX
  8
0
 10
1399.862004
 20
1723.967852
 42
-0.161763
  0
VERTEX
  8
0
 10
1388.526436
 20
1733.452612
 42
-0.022889
  0
VERTEX
  8
0
 10
1386.894211
 20
1736.387539
 42
-0.054307
  0
VERTEX
  8
0
 10
1386.030766
 20
1738.729176
 42
-0.047896
  0
VERTEX
  8
0
 10
1385.633614
 20
1741.374137
 42
-0.014597
  0
VERTEX
  8
0
 10
1385.535826
 20
1745.426177
 42
-0.031705
  0
VERTEX
  8
0
 10
1385.907667
 20
1750.849700
 42
-0.066298
  0
VERTEX
  8
0
 10
1387.010671
 20
1754.926268
 42
-0.067333
  0
VERTEX
  8
0
 10
1389.129008
 20
1758.532502
 42
-0.033623
  0
VERTEX
  8
0
 10
1392.676274
 20
1762.474076
 42
-0.083085
  0
VERTEX
  8
0
 10
1398.266907
 20
1766.339963
 42
-0.074865
  0
VERTEX
  8
0
 10
1405.015828
 20
1768.352118
 42
-0.074315
  0
VERTEX
  8
0
 10
1412.104573
 20
1768.295015
 42
-0.079813
  0
SEQEND
  0
POLYLINE
  8
0
 66
1
 70
1
  0
VERTEX
  8
0
 10
56.000000
 20
1279.257693
 42
0.078939
  0
VERTEX
  8
0
 10
50.948941
 20
1276.523884
 42
0.035367
  0
VERTEX
  8
0
 10
45.277724
 20
1271.506084
 42
0.035377
  0
VERTEX
  8
0
 10
40.358057
 20
1265.724443
 42
0.076982
  0
VERTEX
  8
0
 10
37.671385
 20
1260.571861
 42
0.138206
  0
VERTEX
  8
0
 10
36.707617
 20
1242.163104
 42
0.143505
  0
VERTEX
  8
0
 10
45.545871
 20
1226.266662
 42
0.144754
  0
VERTEX
  8
0
 10
61.494269
 20
1217.743783
 42
0.141254
  0
VERTEX
  8
0
 10
79.681495
 20
1219.153790
 42
0.059289
  0
VERTEX
  8
0
 10
85.357951
 20
1222.083542
 42
0.048444
  0
VERTEX
  8
0
 10
90.624310
 20
1226.445262
 42
0.048222
  0
VERTEX
  8
0
 10
94.977099
 20
1231.763491
 42
0.057265
  0
VERTEX
  8
0
 10
97.944067
 20
1237.530992
 42
0.073602
  0
VERTEX
  8
0
 10
99.924176
 20
1246.651821
 42
0.070845
  0
VERTEX
  8
0
 10
99.219377
 20
1256.080434
 42
0.071285
  0
VERTEX
  8
0
 10
95.921016
 20
1264.886094
 42
0.076138
  0
VERTEX
  8
0
 10
90.336398
 20
1272.191163
 42
0.046070
  0
VERTEX
  8
0
 10
85.467761
 20
1276.080411
 42
0.052486
  0
VERTEX
  8
0
 10
80.169650
 20
1278.819028
 42
0.051920
  0
VERTEX
  8
0
 10
74.367149
 20
1280.415280
 42
0.043511
  0
VERTEX
  8
0
 10
68.000000
 20
1280.911284
 42
0.017637
  0
VERTEX
  8
0
 10
64.798724
 20
1280.768749
 42
0.014294
  0
VERTEX
  8
0
 10
61.381250
 20
1280.397005
 42
0.014534
  0
VERTEX
  8
0
 10
58.247328
 20
1279.871932
 42
0.035882
  0
SEQEND
  0
POLYLINE
  8
0
 66
1
 70
1
  0
VERTEX
  8
0
 10
77.721344
 20
1278.490111
 42
-0.067683
  0
VERTEX
  8
0
 10
82.657136
 20
1276.263198
 42
-0.040816
  0
VERTEX
  8
0
 10
87.812150
 20
1272.420434
 42
-0.039987
  0
VERTEX
  8
0
 10
92.426837
 20
1267.649011
 42
-0.052958
  0
VERTEX
  8
0
 10
95.751124
 20
1262.607598
 42
-0.068762
  0
VERTEX
  8
0
 10
97.793070
 20
1256.831927
 42
-0.044800
  0
VERTEX
  8
0
 10
98.591707
 20
1249.793167
 42
-0.044818
  0
VERTEX
  8
0
 10
98.123829
 20
1242.729041
 42
-0.069085
  0
VERTEX
  8
0
 10
96.354315
 20
1236.877595
 42
-0.044152
  0
VERTEX
  8
0
 10
93.633001
 20
1232.123197
 42
-0.041065
  0
VERTEX
  8
0
 10
90.059315
 20
1227.794923
 42
-0.041106
  0
VERTEX
  8
0
 10
85.830231
 20
1224.112921
 42
-0.044455
  0
VERTEX
  8
0
 10
81.160544
 20
1221.279782
 42
-0.060499
  0
VERTEX
  8
0
 10
75.095049
 20
1219.163935
 42
-0.050201
  0
VERTEX
  8
0
 10
68.298701
 20
1218.382565
 42
-0.049978
  0
VERTEX
  8
0
 10
61.450228
 20
1218.971083
 42
-0.058559
  0
VERTEX
  8
0
 10
55.229889
 20
1220.912859
 42
-0.114120
  0
VERTEX
  8
0
 10
44.467933
 20
1229.040283
 42
-0.109579
  0
VERTEX
  8
0
 10
38.170816
 20
1241.182360
 42
-0.109742
  0
VERTEX
  8
0
 10
37.603501
 20
1254.833112
 42
-0.114755
  0
VERTEX
  8
0
 10
42.911030
 20
1267.193658
 42
-0.075526
  0
VERTEX
  8
0
 10
49.806906
 20
1274.096923
 42
-0.080517
  0
VERTEX
  8
0
 10
58.299527
 20
1278.458861
 42
-0.079549
  0
VERTEX
  8
0
 10
67.824554
 20
1279.947460
 42
-0.071355
  0
SEQEND
  0
POLYLINE
  8
0
 66
1
 70
1
  0
VERTEX
  8
0
 10
1692.662223
 20
1279.451497
 42
0.060481
  0
VERTEX
  8
0
 10
1686.604818
 20
1276.356612
 42
0.050436
  0
VERTEX
  8
0
 10
1681.045549
 20
1271.731292
 42
0.050178
  0
VERTEX
  8
0
 10
1676.497326
 20
1266.058168
 42
0.058274
  0
VERTEX
  8
0
 10
1673.433509
 20
1259.860175
 42
0.053285
  0
VERTEX
  8
0
 10
1672.269194
 20
1255.023075
 42
0.032737
  0
VERTEX
  8
0
 10
1671.892294
 20
1249.168817
 42
0.032485
  0
VERTEX
  8
0
 10
1672.285455
 20
1243.230106
 42
0.047443
  0
VERTEX
  8
0
 10
1673.458708
 20
1238.124318
 42
0.063144
  0
VERTEX
  8
0
 10
1675.825284
 20
1233.184871
 42
0.039019
  0
VERTEX
  8
0
 10
1679.732201
 20
1228.055397
 42
0.038541
  0
VERTEX
  8
0
 10
1684.479129
 20
1223.499817
 42
0.053958
  0
VERTEX
  8
0
 10
1689.392402
 20
1220.280962
 42
0.059302
  0
VERTEX
  8
0
 10
1695.293829
 20
1218.102000
 42
0.045792
  0
VERTEX
  8
0
 10
1702.087001
 20
1217.118949
 42
0.045645
  0
VERTEX
  8
0
 10
1708.971833
 20
1217.387820
 42
0.057717
  0
VERTEX
  8
0
 10
1715.147094
 20
1218.935489
 42
0.121852
  0
VERTEX
  8
0
 10
1727.839664
 20
1227.682061
 42
0.121909
  0
VERTEX
  8
0
 10
1734.987792
 20
1241.335977
 42
0.121384
  0
VERTEX
  8
0
 10
1734.958112
 20
1256.795626
 42
0.120143
  0
VERTEX
  8
0
 10
1727.757023
 20
1270.538697
 42
0.051577
  0
VERTEX
  8
0
 10
1722.798911
 20
1275.120248
 42
0.057714
  0
VERTEX
  8
0
 10
1717.182761
 20
1278.392628
 42
0.057028
  0
VERTEX
  8
0
 10
1710.907971
 20
1280.322308
 42
0.048465
  0
VERTEX
  8
0
 10
1704.000000
 20
1280.928749
 42
0.015961
  0
VERTEX
  8
0
 10
1700.847091
 20
1280.798745
 42
0.014110
  0
VERTEX
  8
0
 10
1697.575778
 20
1280.466066
 42
0.014317
  0
VERTEX
  8
0
 10
1694.645201
 20
1279.998554
 42
0.041200
  0
SEQEND
  0
POLYLINE
  8
0
 66
1
 70
1
  0
VERTEX
  8
0
 10
1717.500000
 20
1276.750122
 42
-0.062448
  0
VERTEX
  8
0
 10
1724.780916
 20
1271.761736
 42
-0.074344
  0
VERTEX
  8
0
 10
1730.121081
 20
1265.382538
 42
-0.074459
  0
VERTEX
  8
0
 10
1733.356171
 20
1257.728937
 42
-0.062900
  0
VERTEX
  8
0
 10
1734.458627
 20
1249.000000
 42
-0.064423
  0
VERTEX
  8
0
 10
1733.324651
 20
1240.235483
 42
-0.075282
  0
VERTEX
  8
0
 10
1730.001510
 20
1232.539466
 42
-0.075207
  0
VERTEX
  8
0
 10
1724.545556
 20
1226.166491
 42
-0.064125
  0
VERTEX
  8
0
 10
1717.160544
 20
1221.279782
 42
-0.021522
  0
VERTEX
  8
0
 10
1713.827396
 20
1219.817400
 42
-0.043396
  0
VERTEX
  8
0
 10
1711.074910
 20
1219.014946
 42
-0.037959
  0
VERTEX
  8
0
 10
1707.997189
 20
1218.640544
 42
-0.012987
  0
VERTEX
  8
0
 10
1703.500000
 20
1218.554190
 42
-0.041959
  0
VERTEX
  8
0
 10
1696.656328
 20
1219.176228
 42
-0.063553
  0
VERTEX
  8
0
 10
1690.954627
 20
1220.949027
 42
-0.062788
  0
VERTEX
  8
0
 10
1685.832384
 20
1224.116310
 42
-0.039841
  0
VERTEX
  8
0
 10
1680.734428
 20
1228.950483
 42
-0.123129
  0
VERTEX
  8
0
 10
1673.780992
 20
1242.072486
 42
-0.125438
  0
VERTEX
  8
0
 10
1673.888856
 20
1256.825979
 42
-0.122855
  0
VERTEX
  8
0
 10
1681.085421
 20
1269.956466
 42
-0.115218
  0
VERTEX
  8
0
 10
1693.762601
 20
1278.546259
 42
-0.073439
  0
VERTEX
  8
0
 10
1698.894191
 20
1279.690983
 42
-0.037114
  0
VERTEX
  8
0
 10
1705.534693
 20
1279.682159
 42
-0.036934
  0
VERTEX
  8
0
 10
1712.214049
 20
1278.677058
 42
-0.063272
  0
SEQEND
  0
ENDSEC
  0
EOF
